<?xml version="1.0" encoding="UTF-8" standalone="no"?>
<!DOCTYPE svg PUBLIC "-//W3C//DTD SVG 1.1//EN"
 "http://www.w3.org/Graphics/SVG/1.1/DTD/svg11.dtd">
<!-- Generated by graphviz version 9.0.0 (20230911.1827)
 -->
<!-- Title: RussianCosmeticApp.db.DBUtils.GetDBConnection Pages: 1 -->
<svg width="556pt" height="290pt"
 viewBox="0.00 0.00 555.50 290.00" xmlns="http://www.w3.org/2000/svg" xmlns:xlink="http://www.w3.org/1999/xlink">
<g id="graph0" class="graph" transform="scale(1 1) rotate(0) translate(4 286)">
<title>RussianCosmeticApp.db.DBUtils.GetDBConnection</title>
<!-- Node1 -->
<g id="Node000001" class="node">
<title>Node1</title>
<g id="a_Node000001"><a xlink:title="Статический метод для подключение к базе данных">
<polygon fill="#999999" stroke="#666666" points="547.5,-157 385.25,-157 385.25,-125 547.5,-125 547.5,-157"/>
<text text-anchor="start" x="393.25" y="-143.5" font-family="Helvetica,sans-Serif" font-size="10.00">RussianCosmeticApp.db.DBUtils.</text>
<text text-anchor="middle" x="466.38" y="-131.5" font-family="Helvetica,sans-Serif" font-size="10.00">GetDBConnection</text>
</a>
</g>
</g>
<!-- Node2 -->
<g id="Node000002" class="node">
<title>Node2</title>
<g id="a_Node000002"><a xlink:href="../../d3/d14/class_russian_cosmetic_app_1_1db_1_1_phys_client_d_b.html#a52fccdaafb8e41be610425a34211e8dc" target="_top" xlink:title=" ">
<polygon fill="white" stroke="#666666" points="344.75,-282 196,-282 196,-250 344.75,-250 344.75,-282"/>
<text text-anchor="start" x="204" y="-268.5" font-family="Helvetica,sans-Serif" font-size="10.00">RussianCosmeticApp.db.Phys</text>
<text text-anchor="middle" x="270.38" y="-256.5" font-family="Helvetica,sans-Serif" font-size="10.00">ClientDB.GetAll</text>
</a>
</g>
</g>
<!-- Node1&#45;&gt;Node2 -->
<g id="edge1_Node000001_Node000002" class="edge">
<title>Node1&#45;&gt;Node2</title>
<g id="a_edge1_Node000001_Node000002"><a xlink:title=" ">
<path fill="none" stroke="#63b8ff" d="M442.66,-165.54C420.69,-187.99 385.47,-220.7 349.25,-241 343.55,-244.19 337.39,-247.05 331.11,-249.58"/>
<polygon fill="#63b8ff" stroke="#63b8ff" points="444.95,-168.21 449.36,-158.58 439.9,-163.36 444.95,-168.21"/>
</a>
</g>
</g>
<!-- Node4 -->
<g id="Node000004" class="node">
<title>Node4</title>
<g id="a_Node000004"><a xlink:href="../../dc/d27/class_russian_cosmetic_app_1_1db_1_1_service_d_b.html#ad7b8bebd334cfb5436071dc7583fcffe" target="_top" xlink:title=" ">
<polygon fill="white" stroke="#666666" points="349.25,-232 191.5,-232 191.5,-200 349.25,-200 349.25,-232"/>
<text text-anchor="start" x="199.5" y="-218.5" font-family="Helvetica,sans-Serif" font-size="10.00">RussianCosmeticApp.db.Service</text>
<text text-anchor="middle" x="270.38" y="-206.5" font-family="Helvetica,sans-Serif" font-size="10.00">DB.GetAll</text>
</a>
</g>
</g>
<!-- Node1&#45;&gt;Node4 -->
<g id="edge3_Node000001_Node000004" class="edge">
<title>Node1&#45;&gt;Node4</title>
<g id="a_edge3_Node000001_Node000004"><a xlink:title=" ">
<path fill="none" stroke="#63b8ff" d="M419.33,-162.03C398.17,-171.38 372.64,-182.23 349.25,-191 341.41,-193.94 333.04,-196.85 324.81,-199.6"/>
<polygon fill="#63b8ff" stroke="#63b8ff" points="420.55,-165.32 428.26,-158.06 417.7,-158.93 420.55,-165.32"/>
</a>
</g>
</g>
<!-- Node5 -->
<g id="Node000005" class="node">
<title>Node5</title>
<g id="a_Node000005"><a xlink:href="../../dd/db3/class_russian_cosmetic_app_1_1db_1_1_status_d_b.html#af1b5ec24a109a311abacadd3add20d78" target="_top" xlink:title=" ">
<polygon fill="white" stroke="#666666" points="347.75,-182 193,-182 193,-150 347.75,-150 347.75,-182"/>
<text text-anchor="start" x="201" y="-168.5" font-family="Helvetica,sans-Serif" font-size="10.00">RussianCosmeticApp.db.Status</text>
<text text-anchor="middle" x="270.38" y="-156.5" font-family="Helvetica,sans-Serif" font-size="10.00">DB.GetAll</text>
</a>
</g>
</g>
<!-- Node1&#45;&gt;Node5 -->
<g id="edge4_Node000001_Node000005" class="edge">
<title>Node1&#45;&gt;Node5</title>
<g id="a_edge4_Node000001_Node000005"><a xlink:title=" ">
<path fill="none" stroke="#63b8ff" d="M373.58,-152.83C365.01,-153.93 356.39,-155.04 347.98,-156.13"/>
<polygon fill="#63b8ff" stroke="#63b8ff" points="373.82,-156.33 383.29,-151.58 372.92,-149.39 373.82,-156.33"/>
</a>
</g>
</g>
<!-- Node6 -->
<g id="Node000006" class="node">
<title>Node6</title>
<g id="a_Node000006"><a xlink:href="../../dd/db3/class_russian_cosmetic_app_1_1db_1_1_status_d_b.html#a26c5108e12845e7169793a64ac70ed41" target="_top" xlink:title=" ">
<polygon fill="white" stroke="#666666" points="347.75,-132 193,-132 193,-100 347.75,-100 347.75,-132"/>
<text text-anchor="start" x="201" y="-118.5" font-family="Helvetica,sans-Serif" font-size="10.00">RussianCosmeticApp.db.Status</text>
<text text-anchor="middle" x="270.38" y="-106.5" font-family="Helvetica,sans-Serif" font-size="10.00">DB.GetByID</text>
</a>
</g>
</g>
<!-- Node1&#45;&gt;Node6 -->
<g id="edge5_Node000001_Node000006" class="edge">
<title>Node1&#45;&gt;Node6</title>
<g id="a_edge5_Node000001_Node000006"><a xlink:title=" ">
<path fill="none" stroke="#63b8ff" d="M373.58,-129.17C365.01,-128.07 356.39,-126.96 347.98,-125.87"/>
<polygon fill="#63b8ff" stroke="#63b8ff" points="372.92,-132.61 383.29,-130.42 373.82,-125.67 372.92,-132.61"/>
</a>
</g>
</g>
<!-- Node7 -->
<g id="Node000007" class="node">
<title>Node7</title>
<g id="a_Node000007"><a xlink:href="../../d4/d6c/class_russian_cosmetic_app_1_1db_1_1_order_d_b.html#ae11a242af2aa04b6b165b0c941138f25" target="_top" xlink:title=" ">
<polygon fill="white" stroke="#666666" points="345.5,-82 195.25,-82 195.25,-50 345.5,-50 345.5,-82"/>
<text text-anchor="start" x="203.25" y="-68.5" font-family="Helvetica,sans-Serif" font-size="10.00">RussianCosmeticApp.db.Order</text>
<text text-anchor="middle" x="270.38" y="-56.5" font-family="Helvetica,sans-Serif" font-size="10.00">DB.GetNewId</text>
</a>
</g>
</g>
<!-- Node1&#45;&gt;Node7 -->
<g id="edge6_Node000001_Node000007" class="edge">
<title>Node1&#45;&gt;Node7</title>
<g id="a_edge6_Node000001_Node000007"><a xlink:title=" ">
<path fill="none" stroke="#63b8ff" d="M419.33,-119.97C398.17,-110.62 372.64,-99.77 349.25,-91 341.41,-88.06 333.04,-85.15 324.81,-82.4"/>
<polygon fill="#63b8ff" stroke="#63b8ff" points="417.7,-123.07 428.26,-123.94 420.55,-116.68 417.7,-123.07"/>
</a>
</g>
</g>
<!-- Node8 -->
<g id="Node000008" class="node">
<title>Node8</title>
<g id="a_Node000008"><a xlink:href="../../d3/d14/class_russian_cosmetic_app_1_1db_1_1_phys_client_d_b.html#ab44a18eccebd36dea00288a436448fca" target="_top" xlink:title=" ">
<polygon fill="white" stroke="#666666" points="344.75,-32 196,-32 196,0 344.75,0 344.75,-32"/>
<text text-anchor="start" x="204" y="-18.5" font-family="Helvetica,sans-Serif" font-size="10.00">RussianCosmeticApp.db.Phys</text>
<text text-anchor="middle" x="270.38" y="-6.5" font-family="Helvetica,sans-Serif" font-size="10.00">ClientDB.Insert</text>
</a>
</g>
</g>
<!-- Node1&#45;&gt;Node8 -->
<g id="edge7_Node000001_Node000008" class="edge">
<title>Node1&#45;&gt;Node8</title>
<g id="a_edge7_Node000001_Node000008"><a xlink:title=" ">
<path fill="none" stroke="#63b8ff" d="M442.66,-116.46C420.69,-94.01 385.47,-61.3 349.25,-41 343.55,-37.81 337.39,-34.95 331.11,-32.42"/>
<polygon fill="#63b8ff" stroke="#63b8ff" points="439.9,-118.64 449.36,-123.42 444.95,-113.79 439.9,-118.64"/>
</a>
</g>
</g>
<!-- Node3 -->
<g id="Node000003" class="node">
<title>Node3</title>
<g id="a_Node000003"><a xlink:href="../../d2/ddc/class_russian_cosmetic_app_1_1_new_order_form.html#a58cab19eb45bbb287ad029b930b43dd0" target="_top" xlink:title=" ">
<polygon fill="white" stroke="#666666" points="155.5,-282 0,-282 0,-250 155.5,-250 155.5,-282"/>
<text text-anchor="start" x="8" y="-268.5" font-family="Helvetica,sans-Serif" font-size="10.00">RussianCosmeticApp.NewOrder</text>
<text text-anchor="middle" x="77.75" y="-256.5" font-family="Helvetica,sans-Serif" font-size="10.00">Form.UpdateClients</text>
</a>
</g>
</g>
<!-- Node2&#45;&gt;Node3 -->
<g id="edge2_Node000002_Node000003" class="edge">
<title>Node2&#45;&gt;Node3</title>
<g id="a_edge2_Node000002_Node000003"><a xlink:title=" ">
<path fill="none" stroke="#63b8ff" d="M184.2,-266C174.72,-266 165.1,-266 155.72,-266"/>
<polygon fill="#63b8ff" stroke="#63b8ff" points="184.16,-269.5 194.16,-266 184.16,-262.5 184.16,-269.5"/>
</a>
</g>
</g>
<!-- Node9 -->
<g id="Node000009" class="node">
<title>Node9</title>
<g id="a_Node000009"><a xlink:href="../../d3/d14/class_russian_cosmetic_app_1_1db_1_1_phys_client_d_b.html#a78a4487b6ad83d52c5d3d1516a3e39a3" target="_top" xlink:title=" ">
<polygon fill="white" stroke="#666666" points="152.12,-32 3.38,-32 3.38,0 152.12,0 152.12,-32"/>
<text text-anchor="start" x="11.38" y="-18.5" font-family="Helvetica,sans-Serif" font-size="10.00">RussianCosmeticApp.db.Phys</text>
<text text-anchor="middle" x="77.75" y="-6.5" font-family="Helvetica,sans-Serif" font-size="10.00">ClientDB.Save</text>
</a>
</g>
</g>
<!-- Node8&#45;&gt;Node9 -->
<g id="edge8_Node000008_Node000009" class="edge">
<title>Node8&#45;&gt;Node9</title>
<g id="a_edge8_Node000008_Node000009"><a xlink:title=" ">
<path fill="none" stroke="#63b8ff" d="M184.29,-16C173.71,-16 162.96,-16 152.57,-16"/>
<polygon fill="#63b8ff" stroke="#63b8ff" points="184.16,-19.5 194.16,-16 184.16,-12.5 184.16,-19.5"/>
</a>
</g>
</g>
</g>
</svg>
