<?xml version="1.0" encoding="UTF-8" standalone="no"?>
<!DOCTYPE svg PUBLIC "-//W3C//DTD SVG 1.1//EN"
 "http://www.w3.org/Graphics/SVG/1.1/DTD/svg11.dtd">
<!-- Generated by graphviz version 9.0.0 (20230911.1827)
 -->
<!-- Title: RussianCosmeticApp.db.OrderDB Pages: 1 -->
<svg width="172pt" height="165pt"
 viewBox="0.00 0.00 171.75 165.00" xmlns="http://www.w3.org/2000/svg" xmlns:xlink="http://www.w3.org/1999/xlink">
<g id="graph0" class="graph" transform="scale(1 1) rotate(0) translate(4 161)">
<title>RussianCosmeticApp.db.OrderDB</title>
<!-- Node1 -->
<g id="Node000001" class="node">
<title>Node1</title>
<g id="a_Node000001"><a xlink:title=" ">
<polygon fill="#999999" stroke="#666666" points="163.75,-20 0,-20 0,0 163.75,0 163.75,-20"/>
<text text-anchor="middle" x="81.88" y="-6.5" font-family="Helvetica,sans-Serif" font-size="10.00">RussianCosmeticApp.db.OrderDB</text>
</a>
</g>
</g>
<!-- Node2 -->
<g id="Node000002" class="node">
<title>Node2</title>
<g id="a_Node000002"><a xlink:href="$d5/d25/class_russian_cosmetic_app_1_1_models_1_1_order_model.html" xlink:title=" ">
<polygon fill="white" stroke="#666666" points="115,-77 48.75,-77 48.75,-57 115,-57 115,-77"/>
<text text-anchor="middle" x="81.88" y="-63.5" font-family="Helvetica,sans-Serif" font-size="10.00">OrderModel</text>
</a>
</g>
</g>
<!-- Node2&#45;&gt;Node1 -->
<g id="edge5_Node000001_Node000002" class="edge">
<title>Node2&#45;&gt;Node1</title>
<g id="a_edge5_Node000001_Node000002"><a xlink:title=" ">
<path fill="none" stroke="#63b8ff" d="M81.88,-45.69C81.88,-36.97 81.88,-27.22 81.88,-20.28"/>
<polygon fill="#63b8ff" stroke="#63b8ff" points="78.38,-45.4 81.88,-55.4 85.38,-45.4 78.38,-45.4"/>
</a>
</g>
</g>
<!-- Node3 -->
<g id="Node000003" class="node">
<title>Node3</title>
<g id="a_Node000003"><a xlink:href="$da/d1a/class_russian_cosmetic_app_1_1_models_1_1_status_model.html" xlink:title=" ">
<polygon fill="white" stroke="#666666" points="155.5,-157 8.25,-157 8.25,-125 155.5,-125 155.5,-157"/>
<text text-anchor="start" x="16.25" y="-143.5" font-family="Helvetica,sans-Serif" font-size="10.00">RussianCosmeticApp.Models.</text>
<text text-anchor="middle" x="81.88" y="-131.5" font-family="Helvetica,sans-Serif" font-size="10.00">StatusModel</text>
</a>
</g>
</g>
<!-- Node3&#45;&gt;Node2 -->
<g id="edge6_Node000002_Node000003" class="edge">
<title>Node3&#45;&gt;Node2</title>
<g id="a_edge6_Node000002_Node000003"><a xlink:title=" ">
<path fill="none" stroke="#9a32cd" stroke-dasharray="5,2" d="M81.88,-113.34C81.88,-100.7 81.88,-86.41 81.88,-77.31"/>
<polygon fill="#9a32cd" stroke="#9a32cd" points="78.38,-113.22 81.88,-123.22 85.38,-113.22 78.38,-113.22"/>
</a>
</g>
<text text-anchor="middle" x="99.5" y="-97.5" font-family="Helvetica,sans-Serif" font-size="10.00" fill="grey"> _status</text>
</g>
</g>
</svg>
