<?xml version="1.0" encoding="UTF-8" standalone="no"?>
<!DOCTYPE svg PUBLIC "-//W3C//DTD SVG 1.1//EN"
 "http://www.w3.org/Graphics/SVG/1.1/DTD/svg11.dtd">
<!-- Generated by graphviz version 9.0.0 (20230911.1827)
 -->
<!-- Title: RussianCosmeticApp.db.StatusDB.GetAll Pages: 1 -->
<svg width="361pt" height="90pt"
 viewBox="0.00 0.00 361.00 90.00" xmlns="http://www.w3.org/2000/svg" xmlns:xlink="http://www.w3.org/1999/xlink">
<g id="graph0" class="graph" transform="scale(1 1) rotate(0) translate(4 86)">
<title>RussianCosmeticApp.db.StatusDB.GetAll</title>
<!-- Node1 -->
<g id="Node000001" class="node">
<title>Node1</title>
<g id="a_Node000001"><a xlink:title=" ">
<polygon fill="#999999" stroke="#666666" points="154.75,-57 0,-57 0,-25 154.75,-25 154.75,-57"/>
<text text-anchor="start" x="8" y="-43.5" font-family="Helvetica,sans-Serif" font-size="10.00">RussianCosmeticApp.db.Status</text>
<text text-anchor="middle" x="77.38" y="-31.5" font-family="Helvetica,sans-Serif" font-size="10.00">DB.GetAll</text>
</a>
</g>
</g>
<!-- Node2 -->
<g id="Node000002" class="node">
<title>Node2</title>
<g id="a_Node000002"><a xlink:href="$d9/dce/class_russian_cosmetic_app_1_1db_1_1_d_b_utils.html#afd3eb73b91a83ceb13caba36851665a2" xlink:title="Статический метод для подключение к базе данных">
<polygon fill="white" stroke="#666666" points="353,-82 190.75,-82 190.75,-50 353,-50 353,-82"/>
<text text-anchor="start" x="198.75" y="-68.5" font-family="Helvetica,sans-Serif" font-size="10.00">RussianCosmeticApp.db.DBUtils.</text>
<text text-anchor="middle" x="271.88" y="-56.5" font-family="Helvetica,sans-Serif" font-size="10.00">GetDBConnection</text>
</a>
</g>
</g>
<!-- Node1&#45;&gt;Node2 -->
<g id="edge5_Node000001_Node000002" class="edge">
<title>Node1&#45;&gt;Node2</title>
<g id="a_edge5_Node000001_Node000002"><a xlink:title=" ">
<path fill="none" stroke="#63b8ff" d="M155.01,-50.95C162.92,-51.98 171.01,-53.03 179.07,-54.08"/>
<polygon fill="#63b8ff" stroke="#63b8ff" points="178.53,-57.54 188.9,-55.35 179.44,-50.6 178.53,-57.54"/>
</a>
</g>
</g>
<!-- Node3 -->
<g id="Node000003" class="node">
<title>Node3</title>
<g id="a_Node000003"><a xlink:href="$da/d1a/class_russian_cosmetic_app_1_1_models_1_1_status_model.html#a5aef317ee405dc0c973417af2f780066" xlink:title=" ">
<polygon fill="white" stroke="#666666" points="345.5,-32 198.25,-32 198.25,0 345.5,0 345.5,-32"/>
<text text-anchor="start" x="206.25" y="-18.5" font-family="Helvetica,sans-Serif" font-size="10.00">RussianCosmeticApp.Models.</text>
<text text-anchor="middle" x="271.88" y="-6.5" font-family="Helvetica,sans-Serif" font-size="10.00">StatusModel.StatusModel</text>
</a>
</g>
</g>
<!-- Node1&#45;&gt;Node3 -->
<g id="edge6_Node000001_Node000003" class="edge">
<title>Node1&#45;&gt;Node3</title>
<g id="a_edge6_Node000001_Node000003"><a xlink:title=" ">
<path fill="none" stroke="#63b8ff" d="M155.01,-31.05C165.4,-29.7 176.12,-28.31 186.64,-26.94"/>
<polygon fill="#63b8ff" stroke="#63b8ff" points="186.98,-30.42 196.45,-25.67 186.08,-23.48 186.98,-30.42"/>
</a>
</g>
</g>
</g>
</svg>
