<?xml version="1.0" encoding="UTF-8" standalone="no"?>
<!DOCTYPE svg PUBLIC "-//W3C//DTD SVG 1.1//EN"
 "http://www.w3.org/Graphics/SVG/1.1/DTD/svg11.dtd">
<!-- Generated by graphviz version 9.0.0 (20230911.1827)
 -->
<!-- Title: RussianCosmeticApp.russian_cosmeticDataSet.GetTypedDataSetSchema Pages: 1 -->
<svg width="422pt" height="102pt"
 viewBox="0.00 0.00 421.75 102.00" xmlns="http://www.w3.org/2000/svg" xmlns:xlink="http://www.w3.org/1999/xlink">
<g id="graph0" class="graph" transform="scale(1 1) rotate(0) translate(4 98)">
<title>RussianCosmeticApp.russian_cosmeticDataSet.GetTypedDataSetSchema</title>
<!-- Node1 -->
<g id="Node000001" class="node">
<title>Node1</title>
<g id="a_Node000001"><a xlink:title=" ">
<polygon fill="#999999" stroke="#666666" points="176.5,-72 0,-72 0,-28 176.5,-28 176.5,-72"/>
<text text-anchor="start" x="8" y="-58.5" font-family="Helvetica,sans-Serif" font-size="10.00">RussianCosmeticApp.russian</text>
<text text-anchor="start" x="8" y="-46.5" font-family="Helvetica,sans-Serif" font-size="10.00">_cosmeticDataSet.GetTypedDataSet</text>
<text text-anchor="middle" x="88.25" y="-34.5" font-family="Helvetica,sans-Serif" font-size="10.00">Schema</text>
</a>
</g>
</g>
<!-- Node2 -->
<g id="Node000002" class="node">
<title>Node2</title>
<g id="a_Node000002"><a xlink:href="$d6/d7f/class_russian_cosmetic_app_1_1russian__cosmetic_data_set.html#a8b25e4bfebe456b28b39aba0031402eb" xlink:title=" ">
<polygon fill="white" stroke="#666666" points="413.75,-94 212.5,-94 212.5,-62 413.75,-62 413.75,-94"/>
<text text-anchor="start" x="220.5" y="-80.5" font-family="Helvetica,sans-Serif" font-size="10.00">RussianCosmeticApp.russian</text>
<text text-anchor="middle" x="313.12" y="-68.5" font-family="Helvetica,sans-Serif" font-size="10.00">_cosmeticDataSet.GetSchemaSerializable</text>
</a>
</g>
</g>
<!-- Node1&#45;&gt;Node2 -->
<g id="edge5_Node000001_Node000002" class="edge">
<title>Node1&#45;&gt;Node2</title>
<g id="a_edge5_Node000001_Node000002"><a xlink:title=" ">
<path fill="none" stroke="#63b8ff" d="M176.7,-60.99C184.57,-61.98 192.61,-62.99 200.66,-64"/>
<polygon fill="#63b8ff" stroke="#63b8ff" points="200.15,-67.46 210.51,-65.23 201.02,-60.51 200.15,-67.46"/>
</a>
</g>
</g>
<!-- Node3 -->
<g id="Node000003" class="node">
<title>Node3</title>
<g id="a_Node000003"><a xlink:href="$d6/d7f/class_russian_cosmetic_app_1_1russian__cosmetic_data_set.html#afb30a06acb609d570c9dee233935533b" xlink:title=" ">
<polygon fill="white" stroke="#666666" points="385.25,-44 241,-44 241,0 385.25,0 385.25,-44"/>
<text text-anchor="start" x="249" y="-30.5" font-family="Helvetica,sans-Serif" font-size="10.00">RussianCosmeticApp.russian</text>
<text text-anchor="start" x="249" y="-18.5" font-family="Helvetica,sans-Serif" font-size="10.00">_cosmeticDataSet.russian</text>
<text text-anchor="middle" x="313.12" y="-6.5" font-family="Helvetica,sans-Serif" font-size="10.00">_cosmeticDataSet</text>
</a>
</g>
</g>
<!-- Node1&#45;&gt;Node3 -->
<g id="edge6_Node000001_Node000003" class="edge">
<title>Node1&#45;&gt;Node3</title>
<g id="a_edge6_Node000001_Node000003"><a xlink:title=" ">
<path fill="none" stroke="#63b8ff" d="M176.7,-39.01C194.1,-36.83 212.33,-34.54 229.57,-32.37"/>
<polygon fill="#63b8ff" stroke="#63b8ff" points="229.74,-35.88 239.23,-31.16 228.87,-28.93 229.74,-35.88"/>
</a>
</g>
</g>
</g>
</svg>
