<?xml version="1.0" encoding="UTF-8" standalone="no"?>
<!DOCTYPE svg PUBLIC "-//W3C//DTD SVG 1.1//EN"
 "http://www.w3.org/Graphics/SVG/1.1/DTD/svg11.dtd">
<!-- Generated by graphviz version 9.0.0 (20230911.1827)
 -->
<!-- Title: RussianCosmeticApp.russian_cosmeticDataSet.GetSchemaSerializable Pages: 1 -->
<svg width="429pt" height="238pt"
 viewBox="0.00 0.00 428.50 238.00" xmlns="http://www.w3.org/2000/svg" xmlns:xlink="http://www.w3.org/1999/xlink">
<g id="graph0" class="graph" transform="scale(1 1) rotate(0) translate(4 234)">
<title>RussianCosmeticApp.russian_cosmeticDataSet.GetSchemaSerializable</title>
<!-- Node1 -->
<g id="Node000001" class="node">
<title>Node1</title>
<g id="a_Node000001"><a xlink:title=" ">
<polygon fill="#999999" stroke="#666666" points="420.5,-131 219.25,-131 219.25,-99 420.5,-99 420.5,-131"/>
<text text-anchor="start" x="227.25" y="-117.5" font-family="Helvetica,sans-Serif" font-size="10.00">RussianCosmeticApp.russian</text>
<text text-anchor="middle" x="319.88" y="-105.5" font-family="Helvetica,sans-Serif" font-size="10.00">_cosmeticDataSet.GetSchemaSerializable</text>
</a>
</g>
</g>
<!-- Node2 -->
<g id="Node000002" class="node">
<title>Node2</title>
<g id="a_Node000002"><a xlink:href="$d6/d7f/class_russian_cosmetic_app_1_1russian__cosmetic_data_set.html#ab5a79966417592d59d01dcbe460948cb" xlink:title=" ">
<polygon fill="white" stroke="#666666" points="179.88,-230 3.38,-230 3.38,-186 179.88,-186 179.88,-230"/>
<text text-anchor="start" x="11.38" y="-216.5" font-family="Helvetica,sans-Serif" font-size="10.00">RussianCosmeticApp.russian</text>
<text text-anchor="start" x="11.38" y="-204.5" font-family="Helvetica,sans-Serif" font-size="10.00">_cosmeticDataSet.GetTypedDataSet</text>
<text text-anchor="middle" x="91.62" y="-192.5" font-family="Helvetica,sans-Serif" font-size="10.00">Schema</text>
</a>
</g>
</g>
<!-- Node1&#45;&gt;Node2 -->
<g id="edge9_Node000001_Node000002" class="edge">
<title>Node1&#45;&gt;Node2</title>
<g id="a_edge9_Node000001_Node000002"><a xlink:title=" ">
<path fill="none" stroke="#63b8ff" d="M275.24,-136.28C248.88,-148.8 214.46,-164.56 183.25,-177 175.99,-179.89 168.34,-182.77 160.69,-185.54"/>
<polygon fill="#63b8ff" stroke="#63b8ff" points="276.4,-139.61 283.91,-132.14 273.38,-133.29 276.4,-139.61"/>
</a>
</g>
</g>
<!-- Node3 -->
<g id="Node000003" class="node">
<title>Node3</title>
<g id="a_Node000003"><a xlink:href="$de/d80/class_russian_cosmetic_app_1_1russian__cosmetic_data_set_1_1orders_data_table.html#a83670a514229fb051756d7525fc90e16" xlink:title=" ">
<polygon fill="white" stroke="#666666" points="178,-168 5.25,-168 5.25,-124 178,-124 178,-168"/>
<text text-anchor="start" x="13.25" y="-154.5" font-family="Helvetica,sans-Serif" font-size="10.00">RussianCosmeticApp.russian</text>
<text text-anchor="start" x="13.25" y="-142.5" font-family="Helvetica,sans-Serif" font-size="10.00">_cosmeticDataSet.ordersDataTable.</text>
<text text-anchor="middle" x="91.62" y="-130.5" font-family="Helvetica,sans-Serif" font-size="10.00">GetTypedTableSchema</text>
</a>
</g>
</g>
<!-- Node1&#45;&gt;Node3 -->
<g id="edge10_Node000001_Node000003" class="edge">
<title>Node1&#45;&gt;Node3</title>
<g id="a_edge10_Node000001_Node000003"><a xlink:title=" ">
<path fill="none" stroke="#63b8ff" d="M207.77,-130.22C197.82,-131.59 187.85,-132.95 178.17,-134.28"/>
<polygon fill="#63b8ff" stroke="#63b8ff" points="208.05,-133.72 217.48,-128.89 207.1,-126.78 208.05,-133.72"/>
</a>
</g>
</g>
<!-- Node4 -->
<g id="Node000004" class="node">
<title>Node4</title>
<g id="a_Node000004"><a xlink:href="$d8/db6/class_russian_cosmetic_app_1_1russian__cosmetic_data_set_1_1services_data_table.html#af3f2d299ff359996fef6cad23ae60aa4" xlink:title=" ">
<polygon fill="white" stroke="#666666" points="182.12,-106 1.12,-106 1.12,-62 182.12,-62 182.12,-106"/>
<text text-anchor="start" x="9.12" y="-92.5" font-family="Helvetica,sans-Serif" font-size="10.00">RussianCosmeticApp.russian</text>
<text text-anchor="start" x="9.12" y="-80.5" font-family="Helvetica,sans-Serif" font-size="10.00">_cosmeticDataSet.servicesDataTable.</text>
<text text-anchor="middle" x="91.62" y="-68.5" font-family="Helvetica,sans-Serif" font-size="10.00">GetTypedTableSchema</text>
</a>
</g>
</g>
<!-- Node1&#45;&gt;Node4 -->
<g id="edge11_Node000001_Node000004" class="edge">
<title>Node1&#45;&gt;Node4</title>
<g id="a_edge11_Node000001_Node000004"><a xlink:title=" ">
<path fill="none" stroke="#63b8ff" d="M207.79,-99.78C199.26,-98.61 190.72,-97.44 182.35,-96.29"/>
<polygon fill="#63b8ff" stroke="#63b8ff" points="207.1,-103.22 217.48,-101.11 208.05,-96.28 207.1,-103.22"/>
</a>
</g>
</g>
<!-- Node5 -->
<g id="Node000005" class="node">
<title>Node5</title>
<g id="a_Node000005"><a xlink:href="$de/dfe/class_russian_cosmetic_app_1_1russian__cosmetic_data_set_1_1statuses_data_table.html#a4c03969e1138a612931bcdb1d1b37ea0" xlink:title=" ">
<polygon fill="white" stroke="#666666" points="183.25,-44 0,-44 0,0 183.25,0 183.25,-44"/>
<text text-anchor="start" x="8" y="-30.5" font-family="Helvetica,sans-Serif" font-size="10.00">RussianCosmeticApp.russian</text>
<text text-anchor="start" x="8" y="-18.5" font-family="Helvetica,sans-Serif" font-size="10.00">_cosmeticDataSet.statusesDataTable.</text>
<text text-anchor="middle" x="91.62" y="-6.5" font-family="Helvetica,sans-Serif" font-size="10.00">GetTypedTableSchema</text>
</a>
</g>
</g>
<!-- Node1&#45;&gt;Node5 -->
<g id="edge12_Node000001_Node000005" class="edge">
<title>Node1&#45;&gt;Node5</title>
<g id="a_edge12_Node000001_Node000005"><a xlink:title=" ">
<path fill="none" stroke="#63b8ff" d="M275.24,-93.72C248.88,-81.2 214.46,-65.44 183.25,-53 175.99,-50.11 168.34,-47.23 160.69,-44.46"/>
<polygon fill="#63b8ff" stroke="#63b8ff" points="273.38,-96.71 283.91,-97.86 276.4,-90.39 273.38,-96.71"/>
</a>
</g>
</g>
</g>
</svg>
