<?xml version="1.0" encoding="UTF-8" standalone="no"?>
<!DOCTYPE svg PUBLIC "-//W3C//DTD SVG 1.1//EN"
 "http://www.w3.org/Graphics/SVG/1.1/DTD/svg11.dtd">
<!-- Generated by graphviz version 9.0.0 (20230911.1827)
 -->
<!-- Title: RussianCosmeticApp.russian_cosmeticDataSet.russian_cosmeticDataSet Pages: 1 -->
<svg width="372pt" height="288pt"
 viewBox="0.00 0.00 371.50 288.00" xmlns="http://www.w3.org/2000/svg" xmlns:xlink="http://www.w3.org/1999/xlink">
<g id="graph0" class="graph" transform="scale(1 1) rotate(0) translate(4 284)">
<title>RussianCosmeticApp.russian_cosmeticDataSet.russian_cosmeticDataSet</title>
<!-- Node1 -->
<g id="Node000001" class="node">
<title>Node1</title>
<g id="a_Node000001"><a xlink:title=" ">
<polygon fill="#999999" stroke="#666666" points="363.5,-168 219.25,-168 219.25,-124 363.5,-124 363.5,-168"/>
<text text-anchor="start" x="227.25" y="-154.5" font-family="Helvetica,sans-Serif" font-size="10.00">RussianCosmeticApp.russian</text>
<text text-anchor="start" x="227.25" y="-142.5" font-family="Helvetica,sans-Serif" font-size="10.00">_cosmeticDataSet.russian</text>
<text text-anchor="middle" x="291.38" y="-130.5" font-family="Helvetica,sans-Serif" font-size="10.00">_cosmeticDataSet</text>
</a>
</g>
</g>
<!-- Node2 -->
<g id="Node000002" class="node">
<title>Node2</title>
<g id="a_Node000002"><a xlink:href="$d6/d7f/class_russian_cosmetic_app_1_1russian__cosmetic_data_set.html#abaeea4a2c69495ae62984ea091ca0391" xlink:title=" ">
<polygon fill="white" stroke="#666666" points="163.75,-280 19.5,-280 19.5,-248 163.75,-248 163.75,-280"/>
<text text-anchor="start" x="27.5" y="-266.5" font-family="Helvetica,sans-Serif" font-size="10.00">RussianCosmeticApp.russian</text>
<text text-anchor="middle" x="91.62" y="-254.5" font-family="Helvetica,sans-Serif" font-size="10.00">_cosmeticDataSet.Clone</text>
</a>
</g>
</g>
<!-- Node1&#45;&gt;Node2 -->
<g id="edge11_Node000001_Node000002" class="edge">
<title>Node1&#45;&gt;Node2</title>
<g id="a_edge11_Node000001_Node000002"><a xlink:title=" ">
<path fill="none" stroke="#63b8ff" d="M262.55,-176.44C242.36,-196.85 213.39,-222.84 183.25,-239 177.21,-242.24 170.71,-245.09 164.07,-247.59"/>
<polygon fill="#63b8ff" stroke="#63b8ff" points="264.88,-179.07 269.32,-169.46 259.85,-174.2 264.88,-179.07"/>
</a>
</g>
</g>
<!-- Node3 -->
<g id="Node000003" class="node">
<title>Node3</title>
<g id="a_Node000003"><a xlink:href="$d6/d7f/class_russian_cosmetic_app_1_1russian__cosmetic_data_set.html#ab5a79966417592d59d01dcbe460948cb" xlink:title=" ">
<polygon fill="white" stroke="#666666" points="179.88,-230 3.38,-230 3.38,-186 179.88,-186 179.88,-230"/>
<text text-anchor="start" x="11.38" y="-216.5" font-family="Helvetica,sans-Serif" font-size="10.00">RussianCosmeticApp.russian</text>
<text text-anchor="start" x="11.38" y="-204.5" font-family="Helvetica,sans-Serif" font-size="10.00">_cosmeticDataSet.GetTypedDataSet</text>
<text text-anchor="middle" x="91.62" y="-192.5" font-family="Helvetica,sans-Serif" font-size="10.00">Schema</text>
</a>
</g>
</g>
<!-- Node1&#45;&gt;Node3 -->
<g id="edge12_Node000001_Node000003" class="edge">
<title>Node1&#45;&gt;Node3</title>
<g id="a_edge12_Node000001_Node000003"><a xlink:title=" ">
<path fill="none" stroke="#63b8ff" d="M208.42,-171.7C193.76,-176.29 178.59,-181.05 164.24,-185.55"/>
<polygon fill="#63b8ff" stroke="#63b8ff" points="209.04,-175.17 217.54,-168.84 206.95,-168.49 209.04,-175.17"/>
</a>
</g>
</g>
<!-- Node4 -->
<g id="Node000004" class="node">
<title>Node4</title>
<g id="a_Node000004"><a xlink:href="$de/d80/class_russian_cosmetic_app_1_1russian__cosmetic_data_set_1_1orders_data_table.html#a83670a514229fb051756d7525fc90e16" xlink:title=" ">
<polygon fill="white" stroke="#666666" points="178,-168 5.25,-168 5.25,-124 178,-124 178,-168"/>
<text text-anchor="start" x="13.25" y="-154.5" font-family="Helvetica,sans-Serif" font-size="10.00">RussianCosmeticApp.russian</text>
<text text-anchor="start" x="13.25" y="-142.5" font-family="Helvetica,sans-Serif" font-size="10.00">_cosmeticDataSet.ordersDataTable.</text>
<text text-anchor="middle" x="91.62" y="-130.5" font-family="Helvetica,sans-Serif" font-size="10.00">GetTypedTableSchema</text>
</a>
</g>
</g>
<!-- Node1&#45;&gt;Node4 -->
<g id="edge13_Node000001_Node000004" class="edge">
<title>Node1&#45;&gt;Node4</title>
<g id="a_edge13_Node000001_Node000004"><a xlink:title=" ">
<path fill="none" stroke="#63b8ff" d="M207.73,-146C198.04,-146 188.14,-146 178.41,-146"/>
<polygon fill="#63b8ff" stroke="#63b8ff" points="207.47,-149.5 217.47,-146 207.47,-142.5 207.47,-149.5"/>
</a>
</g>
</g>
<!-- Node5 -->
<g id="Node000005" class="node">
<title>Node5</title>
<g id="a_Node000005"><a xlink:href="$d8/db6/class_russian_cosmetic_app_1_1russian__cosmetic_data_set_1_1services_data_table.html#af3f2d299ff359996fef6cad23ae60aa4" xlink:title=" ">
<polygon fill="white" stroke="#666666" points="182.12,-106 1.12,-106 1.12,-62 182.12,-62 182.12,-106"/>
<text text-anchor="start" x="9.12" y="-92.5" font-family="Helvetica,sans-Serif" font-size="10.00">RussianCosmeticApp.russian</text>
<text text-anchor="start" x="9.12" y="-80.5" font-family="Helvetica,sans-Serif" font-size="10.00">_cosmeticDataSet.servicesDataTable.</text>
<text text-anchor="middle" x="91.62" y="-68.5" font-family="Helvetica,sans-Serif" font-size="10.00">GetTypedTableSchema</text>
</a>
</g>
</g>
<!-- Node1&#45;&gt;Node5 -->
<g id="edge14_Node000001_Node000005" class="edge">
<title>Node1&#45;&gt;Node5</title>
<g id="a_edge14_Node000001_Node000005"><a xlink:title=" ">
<path fill="none" stroke="#63b8ff" d="M208.42,-120.3C193.76,-115.71 178.59,-110.95 164.24,-106.45"/>
<polygon fill="#63b8ff" stroke="#63b8ff" points="206.95,-123.51 217.54,-123.16 209.04,-116.83 206.95,-123.51"/>
</a>
</g>
</g>
<!-- Node6 -->
<g id="Node000006" class="node">
<title>Node6</title>
<g id="a_Node000006"><a xlink:href="$de/dfe/class_russian_cosmetic_app_1_1russian__cosmetic_data_set_1_1statuses_data_table.html#a4c03969e1138a612931bcdb1d1b37ea0" xlink:title=" ">
<polygon fill="white" stroke="#666666" points="183.25,-44 0,-44 0,0 183.25,0 183.25,-44"/>
<text text-anchor="start" x="8" y="-30.5" font-family="Helvetica,sans-Serif" font-size="10.00">RussianCosmeticApp.russian</text>
<text text-anchor="start" x="8" y="-18.5" font-family="Helvetica,sans-Serif" font-size="10.00">_cosmeticDataSet.statusesDataTable.</text>
<text text-anchor="middle" x="91.62" y="-6.5" font-family="Helvetica,sans-Serif" font-size="10.00">GetTypedTableSchema</text>
</a>
</g>
</g>
<!-- Node1&#45;&gt;Node6 -->
<g id="edge15_Node000001_Node000006" class="edge">
<title>Node1&#45;&gt;Node6</title>
<g id="a_edge15_Node000001_Node000006"><a xlink:title=" ">
<path fill="none" stroke="#63b8ff" d="M261.85,-115.74C241.53,-95.65 212.7,-69.95 183.25,-53 177.77,-49.85 171.93,-46.95 165.94,-44.3"/>
<polygon fill="#63b8ff" stroke="#63b8ff" points="259.14,-117.98 268.67,-122.61 264.11,-113.05 259.14,-117.98"/>
</a>
</g>
</g>
</g>
</svg>
