<?xml version="1.0" encoding="UTF-8" standalone="no"?>
<!DOCTYPE svg PUBLIC "-//W3C//DTD SVG 1.1//EN"
 "http://www.w3.org/Graphics/SVG/1.1/DTD/svg11.dtd">
<!-- Generated by graphviz version 9.0.0 (20230911.1827)
 -->
<!-- Title: RussianCosmeticApp.russian_cosmeticDataSet.servicesDataTable.GetTypedTableSchema Pages: 1 -->
<svg width="426pt" height="102pt"
 viewBox="0.00 0.00 426.25 102.00" xmlns="http://www.w3.org/2000/svg" xmlns:xlink="http://www.w3.org/1999/xlink">
<g id="graph0" class="graph" transform="scale(1 1) rotate(0) translate(4 98)">
<title>RussianCosmeticApp.russian_cosmeticDataSet.servicesDataTable.GetTypedTableSchema</title>
<!-- Node1 -->
<g id="Node000001" class="node">
<title>Node1</title>
<g id="a_Node000001"><a xlink:title=" ">
<polygon fill="#999999" stroke="#666666" points="181,-72 0,-72 0,-28 181,-28 181,-72"/>
<text text-anchor="start" x="8" y="-58.5" font-family="Helvetica,sans-Serif" font-size="10.00">RussianCosmeticApp.russian</text>
<text text-anchor="start" x="8" y="-46.5" font-family="Helvetica,sans-Serif" font-size="10.00">_cosmeticDataSet.servicesDataTable.</text>
<text text-anchor="middle" x="90.5" y="-34.5" font-family="Helvetica,sans-Serif" font-size="10.00">GetTypedTableSchema</text>
</a>
</g>
</g>
<!-- Node2 -->
<g id="Node000002" class="node">
<title>Node2</title>
<g id="a_Node000002"><a xlink:href="$d6/d7f/class_russian_cosmetic_app_1_1russian__cosmetic_data_set.html#a8b25e4bfebe456b28b39aba0031402eb" xlink:title=" ">
<polygon fill="white" stroke="#666666" points="418.25,-94 217,-94 217,-62 418.25,-62 418.25,-94"/>
<text text-anchor="start" x="225" y="-80.5" font-family="Helvetica,sans-Serif" font-size="10.00">RussianCosmeticApp.russian</text>
<text text-anchor="middle" x="317.62" y="-68.5" font-family="Helvetica,sans-Serif" font-size="10.00">_cosmeticDataSet.GetSchemaSerializable</text>
</a>
</g>
</g>
<!-- Node1&#45;&gt;Node2 -->
<g id="edge5_Node000001_Node000002" class="edge">
<title>Node1&#45;&gt;Node2</title>
<g id="a_edge5_Node000001_Node000002"><a xlink:title=" ">
<path fill="none" stroke="#63b8ff" d="M181.45,-61.19C189.35,-62.17 197.42,-63.17 205.47,-64.18"/>
<polygon fill="#63b8ff" stroke="#63b8ff" points="204.98,-67.64 215.33,-65.4 205.84,-60.69 204.98,-67.64"/>
</a>
</g>
</g>
<!-- Node3 -->
<g id="Node000003" class="node">
<title>Node3</title>
<g id="a_Node000003"><a xlink:href="$d6/d7f/class_russian_cosmetic_app_1_1russian__cosmetic_data_set.html#afb30a06acb609d570c9dee233935533b" xlink:title=" ">
<polygon fill="white" stroke="#666666" points="389.75,-44 245.5,-44 245.5,0 389.75,0 389.75,-44"/>
<text text-anchor="start" x="253.5" y="-30.5" font-family="Helvetica,sans-Serif" font-size="10.00">RussianCosmeticApp.russian</text>
<text text-anchor="start" x="253.5" y="-18.5" font-family="Helvetica,sans-Serif" font-size="10.00">_cosmeticDataSet.russian</text>
<text text-anchor="middle" x="317.62" y="-6.5" font-family="Helvetica,sans-Serif" font-size="10.00">_cosmeticDataSet</text>
</a>
</g>
</g>
<!-- Node1&#45;&gt;Node3 -->
<g id="edge6_Node000001_Node000003" class="edge">
<title>Node1&#45;&gt;Node3</title>
<g id="a_edge6_Node000001_Node000003"><a xlink:title=" ">
<path fill="none" stroke="#63b8ff" d="M181.45,-38.81C198.83,-36.65 216.96,-34.4 234.09,-32.27"/>
<polygon fill="#63b8ff" stroke="#63b8ff" points="234.19,-35.78 243.68,-31.07 233.32,-28.83 234.19,-35.78"/>
</a>
</g>
</g>
</g>
</svg>
