<?xml version="1.0" encoding="UTF-8" standalone="no"?>
<!DOCTYPE svg PUBLIC "-//W3C//DTD SVG 1.1//EN"
 "http://www.w3.org/Graphics/SVG/1.1/DTD/svg11.dtd">
<!-- Generated by graphviz version 9.0.0 (20230911.1827)
 -->
<!-- Title: RussianCosmeticApp.db.PhysClientDB Pages: 1 -->
<svg width="157pt" height="152pt"
 viewBox="0.00 0.00 156.75 152.00" xmlns="http://www.w3.org/2000/svg" xmlns:xlink="http://www.w3.org/1999/xlink">
<g id="graph0" class="graph" transform="scale(1 1) rotate(0) translate(4 148)">
<title>RussianCosmeticApp.db.PhysClientDB</title>
<!-- Node1 -->
<g id="Node000001" class="node">
<title>Node1</title>
<g id="a_Node000001"><a xlink:title=" ">
<polygon fill="#999999" stroke="#666666" points="148.75,-32 0,-32 0,0 148.75,0 148.75,-32"/>
<text text-anchor="start" x="8" y="-18.5" font-family="Helvetica,sans-Serif" font-size="10.00">RussianCosmeticApp.db.Phys</text>
<text text-anchor="middle" x="74.38" y="-6.5" font-family="Helvetica,sans-Serif" font-size="10.00">ClientDB</text>
</a>
</g>
</g>
<!-- Node2 -->
<g id="Node000002" class="node">
<title>Node2</title>
<g id="a_Node000002"><a xlink:href="../../df/db9/class_russian_cosmetic_app_1_1_models_1_1_phys_client_model.html" target="_top" xlink:title=" ">
<polygon fill="white" stroke="#666666" points="119.12,-88 29.62,-88 29.62,-68 119.12,-68 119.12,-88"/>
<text text-anchor="middle" x="74.38" y="-74.5" font-family="Helvetica,sans-Serif" font-size="10.00">PhysClientModel</text>
</a>
</g>
</g>
<!-- Node2&#45;&gt;Node1 -->
<g id="edge1_Node000001_Node000002" class="edge">
<title>Node2&#45;&gt;Node1</title>
<g id="a_edge1_Node000001_Node000002"><a xlink:title=" ">
<path fill="none" stroke="#63b8ff" d="M74.38,-56.31C74.38,-48.37 74.38,-39.46 74.38,-32.14"/>
<polygon fill="#63b8ff" stroke="#63b8ff" points="70.88,-56.11 74.38,-66.11 77.88,-56.11 70.88,-56.11"/>
</a>
</g>
</g>
<!-- Node3 -->
<g id="Node000003" class="node">
<title>Node3</title>
<g id="a_Node000003"><a xlink:href="../../d6/d61/class_russian_cosmetic_app_1_1_models_1_1_abs_client_model.html" target="_top" xlink:title=" ">
<polygon fill="white" stroke="#666666" points="116.5,-144 32.25,-144 32.25,-124 116.5,-124 116.5,-144"/>
<text text-anchor="middle" x="74.38" y="-130.5" font-family="Helvetica,sans-Serif" font-size="10.00">AbsClientModel</text>
</a>
</g>
</g>
<!-- Node3&#45;&gt;Node2 -->
<g id="edge2_Node000002_Node000003" class="edge">
<title>Node3&#45;&gt;Node2</title>
<g id="a_edge2_Node000002_Node000003"><a xlink:title=" ">
<path fill="none" stroke="#63b8ff" d="M74.38,-112.13C74.38,-103.9 74.38,-94.85 74.38,-88.3"/>
<polygon fill="#63b8ff" stroke="#63b8ff" points="70.88,-112.08 74.38,-122.08 77.88,-112.08 70.88,-112.08"/>
</a>
</g>
</g>
</g>
</svg>
