<?xml version="1.0" encoding="UTF-8" standalone="no"?>
<!DOCTYPE svg PUBLIC "-//W3C//DTD SVG 1.1//EN"
 "http://www.w3.org/Graphics/SVG/1.1/DTD/svg11.dtd">
<!-- Generated by graphviz version 9.0.0 (20230911.1827)
 -->
<!-- Title: RussianCosmeticApp.NewOrderForm.UpdateClients Pages: 1 -->
<svg width="547pt" height="90pt"
 viewBox="0.00 0.00 546.50 90.00" xmlns="http://www.w3.org/2000/svg" xmlns:xlink="http://www.w3.org/1999/xlink">
<g id="graph0" class="graph" transform="scale(1 1) rotate(0) translate(4 86)">
<title>RussianCosmeticApp.NewOrderForm.UpdateClients</title>
<!-- Node1 -->
<g id="Node000001" class="node">
<title>Node1</title>
<g id="a_Node000001"><a xlink:title=" ">
<polygon fill="#999999" stroke="#666666" points="155.5,-57 0,-57 0,-25 155.5,-25 155.5,-57"/>
<text text-anchor="start" x="8" y="-43.5" font-family="Helvetica,sans-Serif" font-size="10.00">RussianCosmeticApp.NewOrder</text>
<text text-anchor="middle" x="77.75" y="-31.5" font-family="Helvetica,sans-Serif" font-size="10.00">Form.UpdateClients</text>
</a>
</g>
</g>
<!-- Node2 -->
<g id="Node000002" class="node">
<title>Node2</title>
<g id="a_Node000002"><a xlink:href="../../d3/d14/class_russian_cosmetic_app_1_1db_1_1_phys_client_d_b.html#a52fccdaafb8e41be610425a34211e8dc" target="_top" xlink:title=" ">
<polygon fill="white" stroke="#666666" points="340.25,-57 191.5,-57 191.5,-25 340.25,-25 340.25,-57"/>
<text text-anchor="start" x="199.5" y="-43.5" font-family="Helvetica,sans-Serif" font-size="10.00">RussianCosmeticApp.db.Phys</text>
<text text-anchor="middle" x="265.88" y="-31.5" font-family="Helvetica,sans-Serif" font-size="10.00">ClientDB.GetAll</text>
</a>
</g>
</g>
<!-- Node1&#45;&gt;Node2 -->
<g id="edge1_Node000001_Node000002" class="edge">
<title>Node1&#45;&gt;Node2</title>
<g id="a_edge1_Node000001_Node000002"><a xlink:title=" ">
<path fill="none" stroke="#63b8ff" d="M155.8,-41C163.75,-41 171.86,-41 179.9,-41"/>
<polygon fill="#63b8ff" stroke="#63b8ff" points="179.66,-44.5 189.66,-41 179.66,-37.5 179.66,-44.5"/>
</a>
</g>
</g>
<!-- Node3 -->
<g id="Node000003" class="node">
<title>Node3</title>
<g id="a_Node000003"><a xlink:href="../../d9/dce/class_russian_cosmetic_app_1_1db_1_1_d_b_utils.html#afd3eb73b91a83ceb13caba36851665a2" target="_top" xlink:title="Статический метод для подключение к базе данных">
<polygon fill="white" stroke="#666666" points="538.5,-82 376.25,-82 376.25,-50 538.5,-50 538.5,-82"/>
<text text-anchor="start" x="384.25" y="-68.5" font-family="Helvetica,sans-Serif" font-size="10.00">RussianCosmeticApp.db.DBUtils.</text>
<text text-anchor="middle" x="457.38" y="-56.5" font-family="Helvetica,sans-Serif" font-size="10.00">GetDBConnection</text>
</a>
</g>
</g>
<!-- Node2&#45;&gt;Node3 -->
<g id="edge2_Node000002_Node000003" class="edge">
<title>Node2&#45;&gt;Node3</title>
<g id="a_edge2_Node000002_Node000003"><a xlink:title=" ">
<path fill="none" stroke="#63b8ff" d="M340.68,-50.74C348.52,-51.77 356.57,-52.83 364.58,-53.89"/>
<polygon fill="#63b8ff" stroke="#63b8ff" points="363.99,-57.34 374.37,-55.18 364.91,-50.4 363.99,-57.34"/>
</a>
</g>
</g>
<!-- Node4 -->
<g id="Node000004" class="node">
<title>Node4</title>
<g id="a_Node000004"><a xlink:href="../../d3/d14/class_russian_cosmetic_app_1_1db_1_1_phys_client_d_b.html#a5e25bfe817dbc1413cd77103eae670c2" target="_top" xlink:title=" ">
<polygon fill="white" stroke="#666666" points="531.75,-32 383,-32 383,0 531.75,0 531.75,-32"/>
<text text-anchor="start" x="391" y="-18.5" font-family="Helvetica,sans-Serif" font-size="10.00">RussianCosmeticApp.db.Phys</text>
<text text-anchor="middle" x="457.38" y="-6.5" font-family="Helvetica,sans-Serif" font-size="10.00">ClientDB.PhysClientDB</text>
</a>
</g>
</g>
<!-- Node2&#45;&gt;Node4 -->
<g id="edge3_Node000002_Node000004" class="edge">
<title>Node2&#45;&gt;Node4</title>
<g id="a_edge3_Node000002_Node000004"><a xlink:title=" ">
<path fill="none" stroke="#63b8ff" d="M340.68,-31.26C350.83,-29.92 361.32,-28.54 371.65,-27.18"/>
<polygon fill="#63b8ff" stroke="#63b8ff" points="371.81,-30.69 381.27,-25.91 370.9,-23.75 371.81,-30.69"/>
</a>
</g>
</g>
</g>
</svg>
