<?xml version="1.0" encoding="UTF-8" standalone="no"?>
<!DOCTYPE svg PUBLIC "-//W3C//DTD SVG 1.1//EN"
 "http://www.w3.org/Graphics/SVG/1.1/DTD/svg11.dtd">
<!-- Generated by graphviz version 9.0.0 (20230911.1827)
 -->
<!-- Title: Иерархия классов. Графический вид. Pages: 1 -->
<svg width="379pt" height="140pt"
 viewBox="0.00 0.00 379.00 140.00" xmlns="http://www.w3.org/2000/svg" xmlns:xlink="http://www.w3.org/1999/xlink">
<g id="graph0" class="graph" transform="scale(1 1) rotate(0) translate(4 136)">
<title>Иерархия классов. Графический вид.</title>
<!-- Node0 -->
<g id="Node000000" class="node">
<title>Node0</title>
<g id="a_Node000000"><a xlink:title=" ">
<polygon fill="#e0e0e0" stroke="#999999" points="122.5,-76 0,-76 0,-56 122.5,-56 122.5,-76"/>
<text text-anchor="middle" x="61.25" y="-62.5" font-family="Helvetica,sans-Serif" font-size="10.00">global.SystemEventArgs</text>
</a>
</g>
</g>
<!-- Node1 -->
<g id="Node000001" class="node">
<title>Node1</title>
<g id="a_Node000001"><a xlink:href="d6/d3a/class_russian_cosmetic_app_1_1russian__cosmetic_data_set_1_1orders_row_change_event.html" target="_top" xlink:title="Row event argument class /summary&gt;">
<polygon fill="white" stroke="#666666" points="365.75,-132 163.75,-132 163.75,-100 365.75,-100 365.75,-132"/>
<text text-anchor="start" x="171.75" y="-118.5" font-family="Helvetica,sans-Serif" font-size="10.00">RussianCosmeticApp.russian</text>
<text text-anchor="middle" x="264.75" y="-106.5" font-family="Helvetica,sans-Serif" font-size="10.00">_cosmeticDataSet.ordersRowChangeEvent</text>
</a>
</g>
</g>
<!-- Node0&#45;&gt;Node1 -->
<g id="edge14_Node000000_Node000001" class="edge">
<title>Node0&#45;&gt;Node1</title>
<g id="a_edge14_Node000000_Node000001"><a xlink:title=" ">
<path fill="none" stroke="#63b8ff" d="M112.53,-79.27C127.32,-83.12 143.55,-87.28 158.5,-91 169.8,-93.81 181.8,-96.72 193.5,-99.53"/>
<polygon fill="#63b8ff" stroke="#63b8ff" points="113.56,-75.92 103,-76.79 111.8,-82.7 113.56,-75.92"/>
</a>
</g>
</g>
<!-- Node2 -->
<g id="Node000002" class="node">
<title>Node2</title>
<g id="a_Node000002"><a xlink:href="d6/da6/class_russian_cosmetic_app_1_1russian__cosmetic_data_set_1_1services_row_change_event.html" target="_top" xlink:title="Row event argument class /summary&gt;">
<polygon fill="white" stroke="#666666" points="369.88,-82 159.62,-82 159.62,-50 369.88,-50 369.88,-82"/>
<text text-anchor="start" x="167.62" y="-68.5" font-family="Helvetica,sans-Serif" font-size="10.00">RussianCosmeticApp.russian</text>
<text text-anchor="middle" x="264.75" y="-56.5" font-family="Helvetica,sans-Serif" font-size="10.00">_cosmeticDataSet.servicesRowChangeEvent</text>
</a>
</g>
</g>
<!-- Node0&#45;&gt;Node2 -->
<g id="edge15_Node000000_Node000002" class="edge">
<title>Node0&#45;&gt;Node2</title>
<g id="a_edge15_Node000000_Node000002"><a xlink:title=" ">
<path fill="none" stroke="#63b8ff" d="M134.23,-66C142.34,-66 150.72,-66 159.13,-66"/>
<polygon fill="#63b8ff" stroke="#63b8ff" points="134.49,-62.5 124.49,-66 134.49,-69.5 134.49,-62.5"/>
</a>
</g>
</g>
<!-- Node3 -->
<g id="Node000003" class="node">
<title>Node3</title>
<g id="a_Node000003"><a xlink:href="dd/ddd/class_russian_cosmetic_app_1_1russian__cosmetic_data_set_1_1statuses_row_change_event.html" target="_top" xlink:title="Row event argument class /summary&gt;">
<polygon fill="white" stroke="#666666" points="371,-32 158.5,-32 158.5,0 371,0 371,-32"/>
<text text-anchor="start" x="166.5" y="-18.5" font-family="Helvetica,sans-Serif" font-size="10.00">RussianCosmeticApp.russian</text>
<text text-anchor="middle" x="264.75" y="-6.5" font-family="Helvetica,sans-Serif" font-size="10.00">_cosmeticDataSet.statusesRowChangeEvent</text>
</a>
</g>
</g>
<!-- Node0&#45;&gt;Node3 -->
<g id="edge16_Node000000_Node000003" class="edge">
<title>Node0&#45;&gt;Node3</title>
<g id="a_edge16_Node000000_Node000003"><a xlink:title=" ">
<path fill="none" stroke="#63b8ff" d="M112.53,-52.73C127.32,-48.88 143.55,-44.72 158.5,-41 169.8,-38.19 181.8,-35.28 193.5,-32.47"/>
<polygon fill="#63b8ff" stroke="#63b8ff" points="111.8,-49.3 103,-55.21 113.56,-56.08 111.8,-49.3"/>
</a>
</g>
</g>
</g>
</svg>
