<?xml version="1.0" encoding="UTF-8" standalone="no"?>
<!DOCTYPE svg PUBLIC "-//W3C//DTD SVG 1.1//EN"
 "http://www.w3.org/Graphics/SVG/1.1/DTD/svg11.dtd">
<!-- Generated by graphviz version 9.0.0 (20230911.1827)
 -->
<!-- Title: Иерархия классов. Графический вид. Pages: 1 -->
<svg width="398pt" height="140pt"
 viewBox="0.00 0.00 397.75 140.00" xmlns="http://www.w3.org/2000/svg" xmlns:xlink="http://www.w3.org/1999/xlink">
<g id="graph0" class="graph" transform="scale(1 1) rotate(0) translate(4 136)">
<title>Иерархия классов. Графический вид.</title>
<!-- Node0 -->
<g id="Node000000" class="node">
<title>Node0</title>
<g id="a_Node000000"><a xlink:title=" ">
<polygon fill="#e0e0e0" stroke="#999999" points="173.5,-76 0,-76 0,-56 173.5,-56 173.5,-76"/>
<text text-anchor="middle" x="86.75" y="-62.5" font-family="Helvetica,sans-Serif" font-size="10.00">global.SystemData.TypedTableBase</text>
</a>
</g>
</g>
<!-- Node1 -->
<g id="Node000001" class="node">
<title>Node1</title>
<g id="a_Node000001"><a xlink:href="de/d80/class_russian_cosmetic_app_1_1russian__cosmetic_data_set_1_1orders_data_table.html" target="_top" xlink:title="Represents the strongly named DataTable class. /summary&gt;">
<polygon fill="white" stroke="#666666" points="384.5,-132 214.75,-132 214.75,-100 384.5,-100 384.5,-132"/>
<text text-anchor="start" x="222.75" y="-118.5" font-family="Helvetica,sans-Serif" font-size="10.00">RussianCosmeticApp.russian</text>
<text text-anchor="middle" x="299.62" y="-106.5" font-family="Helvetica,sans-Serif" font-size="10.00">_cosmeticDataSet.ordersDataTable</text>
</a>
</g>
</g>
<!-- Node0&#45;&gt;Node1 -->
<g id="edge11_Node000000_Node000001" class="edge">
<title>Node0&#45;&gt;Node1</title>
<g id="a_edge11_Node000000_Node000001"><a xlink:title=" ">
<path fill="none" stroke="#63b8ff" d="M142.9,-79.08C169.28,-85.33 201.14,-92.89 229.16,-99.53"/>
<polygon fill="#63b8ff" stroke="#63b8ff" points="143.97,-75.73 133.43,-76.83 142.35,-82.54 143.97,-75.73"/>
</a>
</g>
</g>
<!-- Node2 -->
<g id="Node000002" class="node">
<title>Node2</title>
<g id="a_Node000002"><a xlink:href="d8/db6/class_russian_cosmetic_app_1_1russian__cosmetic_data_set_1_1services_data_table.html" target="_top" xlink:title="Represents the strongly named DataTable class. /summary&gt;">
<polygon fill="white" stroke="#666666" points="388.62,-82 210.62,-82 210.62,-50 388.62,-50 388.62,-82"/>
<text text-anchor="start" x="218.62" y="-68.5" font-family="Helvetica,sans-Serif" font-size="10.00">RussianCosmeticApp.russian</text>
<text text-anchor="middle" x="299.62" y="-56.5" font-family="Helvetica,sans-Serif" font-size="10.00">_cosmeticDataSet.servicesDataTable</text>
</a>
</g>
</g>
<!-- Node0&#45;&gt;Node2 -->
<g id="edge12_Node000000_Node000002" class="edge">
<title>Node0&#45;&gt;Node2</title>
<g id="a_edge12_Node000000_Node000002"><a xlink:title=" ">
<path fill="none" stroke="#63b8ff" d="M185.22,-66C193.63,-66 202.1,-66 210.43,-66"/>
<polygon fill="#63b8ff" stroke="#63b8ff" points="185.34,-62.5 175.34,-66 185.34,-69.5 185.34,-62.5"/>
</a>
</g>
</g>
<!-- Node3 -->
<g id="Node000003" class="node">
<title>Node3</title>
<g id="a_Node000003"><a xlink:href="de/dfe/class_russian_cosmetic_app_1_1russian__cosmetic_data_set_1_1statuses_data_table.html" target="_top" xlink:title="Represents the strongly named DataTable class. /summary&gt;">
<polygon fill="white" stroke="#666666" points="389.75,-32 209.5,-32 209.5,0 389.75,0 389.75,-32"/>
<text text-anchor="start" x="217.5" y="-18.5" font-family="Helvetica,sans-Serif" font-size="10.00">RussianCosmeticApp.russian</text>
<text text-anchor="middle" x="299.62" y="-6.5" font-family="Helvetica,sans-Serif" font-size="10.00">_cosmeticDataSet.statusesDataTable</text>
</a>
</g>
</g>
<!-- Node0&#45;&gt;Node3 -->
<g id="edge13_Node000000_Node000003" class="edge">
<title>Node0&#45;&gt;Node3</title>
<g id="a_edge13_Node000000_Node000003"><a xlink:title=" ">
<path fill="none" stroke="#63b8ff" d="M142.9,-52.92C169.28,-46.67 201.14,-39.11 229.16,-32.47"/>
<polygon fill="#63b8ff" stroke="#63b8ff" points="142.35,-49.46 133.43,-55.17 143.97,-56.27 142.35,-49.46"/>
</a>
</g>
</g>
</g>
</svg>
