<?xml version="1.0" encoding="UTF-8" standalone="no"?>
<!DOCTYPE svg PUBLIC "-//W3C//DTD SVG 1.1//EN"
 "http://www.w3.org/Graphics/SVG/1.1/DTD/svg11.dtd">
<!-- Generated by graphviz version 9.0.0 (20230911.1827)
 -->
<!-- Title: Иерархия классов. Графический вид. Pages: 1 -->
<svg width="523pt" height="40pt"
 viewBox="0.00 0.00 523.25 40.00" xmlns="http://www.w3.org/2000/svg" xmlns:xlink="http://www.w3.org/1999/xlink">
<g id="graph0" class="graph" transform="scale(1 1) rotate(0) translate(4 36)">
<title>Иерархия классов. Графический вид.</title>
<!-- Node0 -->
<g id="Node000000" class="node">
<title>Node0</title>
<g id="a_Node000000"><a xlink:href="d6/d61/class_russian_cosmetic_app_1_1_models_1_1_abs_client_model.html" target="_top" xlink:title=" ">
<polygon fill="white" stroke="#666666" points="147.25,-32 0,-32 0,0 147.25,0 147.25,-32"/>
<text text-anchor="start" x="8" y="-18.5" font-family="Helvetica,sans-Serif" font-size="10.00">RussianCosmeticApp.Models.</text>
<text text-anchor="middle" x="73.62" y="-6.5" font-family="Helvetica,sans-Serif" font-size="10.00">AbsClientModel</text>
</a>
</g>
</g>
<!-- Node1 -->
<g id="Node000001" class="node">
<title>Node1</title>
<g id="a_Node000001"><a xlink:href="df/db9/class_russian_cosmetic_app_1_1_models_1_1_phys_client_model.html" target="_top" xlink:title=" ">
<polygon fill="white" stroke="#666666" points="330.5,-32 183.25,-32 183.25,0 330.5,0 330.5,-32"/>
<text text-anchor="start" x="191.25" y="-18.5" font-family="Helvetica,sans-Serif" font-size="10.00">RussianCosmeticApp.Models.</text>
<text text-anchor="middle" x="256.88" y="-6.5" font-family="Helvetica,sans-Serif" font-size="10.00">PhysClientModel</text>
</a>
</g>
</g>
<!-- Node0&#45;&gt;Node1 -->
<g id="edge17_Node000000_Node000001" class="edge">
<title>Node0&#45;&gt;Node1</title>
<g id="a_edge17_Node000000_Node000001"><a xlink:title=" ">
<path fill="none" stroke="#63b8ff" d="M158.81,-16C166.82,-16 174.9,-16 182.79,-16"/>
<polygon fill="#63b8ff" stroke="#63b8ff" points="159.08,-12.5 149.08,-16 159.08,-19.5 159.08,-12.5"/>
</a>
</g>
</g>
<!-- Node2 -->
<g id="Node000002" class="node">
<title>Node2</title>
<g id="a_Node000002"><a xlink:href="d3/d14/class_russian_cosmetic_app_1_1db_1_1_phys_client_d_b.html" target="_top" xlink:title=" ">
<polygon fill="white" stroke="#666666" points="515.25,-32 366.5,-32 366.5,0 515.25,0 515.25,-32"/>
<text text-anchor="start" x="374.5" y="-18.5" font-family="Helvetica,sans-Serif" font-size="10.00">RussianCosmeticApp.db.Phys</text>
<text text-anchor="middle" x="440.88" y="-6.5" font-family="Helvetica,sans-Serif" font-size="10.00">ClientDB</text>
</a>
</g>
</g>
<!-- Node1&#45;&gt;Node2 -->
<g id="edge18_Node000001_Node000002" class="edge">
<title>Node1&#45;&gt;Node2</title>
<g id="a_edge18_Node000001_Node000002"><a xlink:title=" ">
<path fill="none" stroke="#63b8ff" d="M342.17,-16C350.22,-16 358.35,-16 366.29,-16"/>
<polygon fill="#63b8ff" stroke="#63b8ff" points="342.37,-12.5 332.37,-16 342.37,-19.5 342.37,-12.5"/>
</a>
</g>
</g>
</g>
</svg>
