<?xml version="1.0" encoding="UTF-8" standalone="no"?>
<!DOCTYPE svg PUBLIC "-//W3C//DTD SVG 1.1//EN"
 "http://www.w3.org/Graphics/SVG/1.1/DTD/svg11.dtd">
<!-- Generated by graphviz version 9.0.0 (20230911.1827)
 -->
<!-- Title: Иерархия классов. Графический вид. Pages: 1 -->
<svg width="340pt" height="140pt"
 viewBox="0.00 0.00 340.00 140.00" xmlns="http://www.w3.org/2000/svg" xmlns:xlink="http://www.w3.org/1999/xlink">
<g id="graph0" class="graph" transform="scale(1 1) rotate(0) translate(4 136)">
<title>Иерархия классов. Графический вид.</title>
<!-- Node0 -->
<g id="Node000000" class="node">
<title>Node0</title>
<g id="a_Node000000"><a xlink:title=" ">
<polygon fill="#e0e0e0" stroke="#999999" points="140.5,-76 0,-76 0,-56 140.5,-56 140.5,-76"/>
<text text-anchor="middle" x="70.25" y="-62.5" font-family="Helvetica,sans-Serif" font-size="10.00">global.SystemData.DataRow</text>
</a>
</g>
</g>
<!-- Node1 -->
<g id="Node000001" class="node">
<title>Node1</title>
<g id="a_Node000001"><a xlink:href="dd/d7c/class_russian_cosmetic_app_1_1russian__cosmetic_data_set_1_1orders_row.html" target="_top" xlink:title="Represents strongly named DataRow class. /summary&gt;">
<polygon fill="white" stroke="#666666" points="326.75,-132 181.75,-132 181.75,-100 326.75,-100 326.75,-132"/>
<text text-anchor="start" x="189.75" y="-118.5" font-family="Helvetica,sans-Serif" font-size="10.00">RussianCosmeticApp.russian</text>
<text text-anchor="middle" x="254.25" y="-106.5" font-family="Helvetica,sans-Serif" font-size="10.00">_cosmeticDataSet.ordersRow</text>
</a>
</g>
</g>
<!-- Node0&#45;&gt;Node1 -->
<g id="edge7_Node000000_Node000001" class="edge">
<title>Node0&#45;&gt;Node1</title>
<g id="a_edge7_Node000000_Node000001"><a xlink:title=" ">
<path fill="none" stroke="#63b8ff" d="M120.38,-79.5C142.84,-85.67 169.66,-93.03 193.29,-99.53"/>
<polygon fill="#63b8ff" stroke="#63b8ff" points="121.43,-76.16 110.86,-76.88 119.58,-82.91 121.43,-76.16"/>
</a>
</g>
</g>
<!-- Node2 -->
<g id="Node000002" class="node">
<title>Node2</title>
<g id="a_Node000002"><a xlink:href="d3/d14/class_russian_cosmetic_app_1_1russian__cosmetic_data_set_1_1services_row.html" target="_top" xlink:title="Represents strongly named DataRow class. /summary&gt;">
<polygon fill="white" stroke="#666666" points="330.88,-82 177.62,-82 177.62,-50 330.88,-50 330.88,-82"/>
<text text-anchor="start" x="185.62" y="-68.5" font-family="Helvetica,sans-Serif" font-size="10.00">RussianCosmeticApp.russian</text>
<text text-anchor="middle" x="254.25" y="-56.5" font-family="Helvetica,sans-Serif" font-size="10.00">_cosmeticDataSet.servicesRow</text>
</a>
</g>
</g>
<!-- Node0&#45;&gt;Node2 -->
<g id="edge8_Node000000_Node000002" class="edge">
<title>Node0&#45;&gt;Node2</title>
<g id="a_edge8_Node000000_Node000002"><a xlink:title=" ">
<path fill="none" stroke="#63b8ff" d="M152.16,-66C160.53,-66 169.02,-66 177.34,-66"/>
<polygon fill="#63b8ff" stroke="#63b8ff" points="152.35,-62.5 142.35,-66 152.35,-69.5 152.35,-62.5"/>
</a>
</g>
</g>
<!-- Node3 -->
<g id="Node000003" class="node">
<title>Node3</title>
<g id="a_Node000003"><a xlink:href="dd/d31/class_russian_cosmetic_app_1_1russian__cosmetic_data_set_1_1statuses_row.html" target="_top" xlink:title="Represents strongly named DataRow class. /summary&gt;">
<polygon fill="white" stroke="#666666" points="332,-32 176.5,-32 176.5,0 332,0 332,-32"/>
<text text-anchor="start" x="184.5" y="-18.5" font-family="Helvetica,sans-Serif" font-size="10.00">RussianCosmeticApp.russian</text>
<text text-anchor="middle" x="254.25" y="-6.5" font-family="Helvetica,sans-Serif" font-size="10.00">_cosmeticDataSet.statusesRow</text>
</a>
</g>
</g>
<!-- Node0&#45;&gt;Node3 -->
<g id="edge9_Node000000_Node000003" class="edge">
<title>Node0&#45;&gt;Node3</title>
<g id="a_edge9_Node000000_Node000003"><a xlink:title=" ">
<path fill="none" stroke="#63b8ff" d="M120.38,-52.5C142.84,-46.33 169.66,-38.97 193.29,-32.47"/>
<polygon fill="#63b8ff" stroke="#63b8ff" points="119.58,-49.09 110.86,-55.12 121.43,-55.84 119.58,-49.09"/>
</a>
</g>
</g>
</g>
</svg>
