<?xml version="1.0" encoding="UTF-8" standalone="no"?>
<!DOCTYPE svg PUBLIC "-//W3C//DTD SVG 1.1//EN"
 "http://www.w3.org/Graphics/SVG/1.1/DTD/svg11.dtd">
<!-- Generated by graphviz version 9.0.0 (20230911.1827)
 -->
<!-- Title: Иерархия классов. Графический вид. Pages: 1 -->
<svg width="400pt" height="238pt"
 viewBox="0.00 0.00 400.00 238.00" xmlns="http://www.w3.org/2000/svg" xmlns:xlink="http://www.w3.org/1999/xlink">
<g id="graph0" class="graph" transform="scale(1 1) rotate(0) translate(4 234)">
<title>Иерархия классов. Графический вид.</title>
<!-- Node0 -->
<g id="Node000000" class="node">
<title>Node0</title>
<g id="a_Node000000"><a xlink:title=" ">
<polygon fill="#e0e0e0" stroke="#999999" points="157,-131 0,-131 0,-99 157,-99 157,-131"/>
<text text-anchor="start" x="8" y="-117.5" font-family="Helvetica,sans-Serif" font-size="10.00">global.SystemComponentModel.</text>
<text text-anchor="middle" x="78.5" y="-105.5" font-family="Helvetica,sans-Serif" font-size="10.00">Component</text>
</a>
</g>
</g>
<!-- Node1 -->
<g id="Node000001" class="node">
<title>Node1</title>
<g id="a_Node000001"><a xlink:href="d1/d56/class_russian_cosmetic_app_1_1russian__cosmetic_data_set_table_adapters_1_1_table_adapter_manager.html" target="_top" xlink:title="TableAdapterManager is used to coordinate TableAdapters in the dataset to enable Hierarchical Update ...">
<polygon fill="white" stroke="#666666" points="384.88,-230 200.12,-230 200.12,-186 384.88,-186 384.88,-230"/>
<text text-anchor="start" x="208.12" y="-216.5" font-family="Helvetica,sans-Serif" font-size="10.00">RussianCosmeticApp.russian</text>
<text text-anchor="start" x="208.12" y="-204.5" font-family="Helvetica,sans-Serif" font-size="10.00">_cosmeticDataSetTableAdapters.Table</text>
<text text-anchor="middle" x="292.5" y="-192.5" font-family="Helvetica,sans-Serif" font-size="10.00">AdapterManager</text>
</a>
</g>
</g>
<!-- Node0&#45;&gt;Node1 -->
<g id="edge3_Node000000_Node000001" class="edge">
<title>Node0&#45;&gt;Node1</title>
<g id="a_edge3_Node000000_Node000001"><a xlink:title=" ">
<path fill="none" stroke="#63b8ff" d="M115.66,-137.12C137.52,-149.88 166.25,-165.61 193,-177 200.01,-179.98 207.41,-182.83 214.87,-185.51"/>
<polygon fill="#63b8ff" stroke="#63b8ff" points="117.52,-134.15 107.13,-132.07 113.95,-140.17 117.52,-134.15"/>
</a>
</g>
</g>
<!-- Node2 -->
<g id="Node000002" class="node">
<title>Node2</title>
<g id="a_Node000002"><a xlink:href="df/dae/class_russian_cosmetic_app_1_1russian__cosmetic_data_set_table_adapters_1_1orders_table_adapter.html" target="_top" xlink:title="Represents the connection and commands used to retrieve and save data. /summary&gt;">
<polygon fill="white" stroke="#666666" points="386.75,-168 198.25,-168 198.25,-124 386.75,-124 386.75,-168"/>
<text text-anchor="start" x="206.25" y="-154.5" font-family="Helvetica,sans-Serif" font-size="10.00">RussianCosmeticApp.russian</text>
<text text-anchor="start" x="206.25" y="-142.5" font-family="Helvetica,sans-Serif" font-size="10.00">_cosmeticDataSetTableAdapters.orders</text>
<text text-anchor="middle" x="292.5" y="-130.5" font-family="Helvetica,sans-Serif" font-size="10.00">TableAdapter</text>
</a>
</g>
</g>
<!-- Node0&#45;&gt;Node2 -->
<g id="edge4_Node000000_Node000002" class="edge">
<title>Node0&#45;&gt;Node2</title>
<g id="a_edge4_Node000000_Node000002"><a xlink:title=" ">
<path fill="none" stroke="#63b8ff" d="M168.53,-128.02C178.25,-129.44 188.17,-130.89 197.94,-132.32"/>
<polygon fill="#63b8ff" stroke="#63b8ff" points="169.14,-124.57 158.73,-126.59 168.12,-131.5 169.14,-124.57"/>
</a>
</g>
</g>
<!-- Node3 -->
<g id="Node000003" class="node">
<title>Node3</title>
<g id="a_Node000003"><a xlink:href="d2/dae/class_russian_cosmetic_app_1_1russian__cosmetic_data_set_table_adapters_1_1services_table_adapter.html" target="_top" xlink:title="Represents the connection and commands used to retrieve and save data. /summary&gt;">
<polygon fill="white" stroke="#666666" points="390.88,-106 194.12,-106 194.12,-62 390.88,-62 390.88,-106"/>
<text text-anchor="start" x="202.12" y="-92.5" font-family="Helvetica,sans-Serif" font-size="10.00">RussianCosmeticApp.russian</text>
<text text-anchor="start" x="202.12" y="-80.5" font-family="Helvetica,sans-Serif" font-size="10.00">_cosmeticDataSetTableAdapters.services</text>
<text text-anchor="middle" x="292.5" y="-68.5" font-family="Helvetica,sans-Serif" font-size="10.00">TableAdapter</text>
</a>
</g>
</g>
<!-- Node0&#45;&gt;Node3 -->
<g id="edge5_Node000000_Node000003" class="edge">
<title>Node0&#45;&gt;Node3</title>
<g id="a_edge5_Node000000_Node000003"><a xlink:title=" ">
<path fill="none" stroke="#63b8ff" d="M168.56,-101.98C176.94,-100.75 185.47,-99.5 193.92,-98.27"/>
<polygon fill="#63b8ff" stroke="#63b8ff" points="168.12,-98.5 158.73,-103.41 169.14,-105.43 168.12,-98.5"/>
</a>
</g>
</g>
<!-- Node4 -->
<g id="Node000004" class="node">
<title>Node4</title>
<g id="a_Node000004"><a xlink:href="d8/d98/class_russian_cosmetic_app_1_1russian__cosmetic_data_set_table_adapters_1_1statuses_table_adapter.html" target="_top" xlink:title="Represents the connection and commands used to retrieve and save data. /summary&gt;">
<polygon fill="white" stroke="#666666" points="392,-44 193,-44 193,0 392,0 392,-44"/>
<text text-anchor="start" x="201" y="-30.5" font-family="Helvetica,sans-Serif" font-size="10.00">RussianCosmeticApp.russian</text>
<text text-anchor="start" x="201" y="-18.5" font-family="Helvetica,sans-Serif" font-size="10.00">_cosmeticDataSetTableAdapters.statuses</text>
<text text-anchor="middle" x="292.5" y="-6.5" font-family="Helvetica,sans-Serif" font-size="10.00">TableAdapter</text>
</a>
</g>
</g>
<!-- Node0&#45;&gt;Node4 -->
<g id="edge6_Node000000_Node000004" class="edge">
<title>Node0&#45;&gt;Node4</title>
<g id="a_edge6_Node000000_Node000004"><a xlink:title=" ">
<path fill="none" stroke="#63b8ff" d="M115.66,-92.88C137.52,-80.12 166.25,-64.39 193,-53 200.01,-50.02 207.41,-47.17 214.87,-44.49"/>
<polygon fill="#63b8ff" stroke="#63b8ff" points="113.95,-89.83 107.13,-97.93 117.52,-95.85 113.95,-89.83"/>
</a>
</g>
</g>
</g>
</svg>
