<?xml version="1.0" encoding="UTF-8" standalone="no"?>
<!DOCTYPE svg PUBLIC "-//W3C//DTD SVG 1.1//EN"
 "http://www.w3.org/Graphics/SVG/1.1/DTD/svg11.dtd">
<!-- Generated by graphviz version 9.0.0 (20230911.1827)
 -->
<!-- Title: Иерархия классов. Графический вид. Pages: 1 -->
<svg width="261pt" height="78pt"
 viewBox="0.00 0.00 260.50 78.00" xmlns="http://www.w3.org/2000/svg" xmlns:xlink="http://www.w3.org/1999/xlink">
<g id="graph0" class="graph" transform="scale(1 1) rotate(0) translate(4 74)">
<title>Иерархия классов. Графический вид.</title>
<!-- Node0 -->
<g id="Node000000" class="node">
<title>Node0</title>
<g id="a_Node000000"><a xlink:title=" ">
<polygon fill="#e0e0e0" stroke="#999999" points="38.5,-42 0,-42 0,-22 38.5,-22 38.5,-42"/>
<text text-anchor="middle" x="19.25" y="-28.5" font-family="Helvetica,sans-Serif" font-size="10.00">Form</text>
</a>
</g>
</g>
<!-- Node1 -->
<g id="Node000001" class="node">
<title>Node1</title>
<g id="a_Node000001"><a xlink:href="dd/db7/class_russian_cosmetic_app_1_1_forms_1_1_new_phys_client_form.html" target="_top" xlink:title=" ">
<polygon fill="white" stroke="#666666" points="235.25,-70 91.75,-70 91.75,-38 235.25,-38 235.25,-70"/>
<text text-anchor="start" x="99.75" y="-56.5" font-family="Helvetica,sans-Serif" font-size="10.00">RussianCosmeticApp.Forms.</text>
<text text-anchor="middle" x="163.5" y="-44.5" font-family="Helvetica,sans-Serif" font-size="10.00">NewPhysClientForm</text>
</a>
</g>
</g>
<!-- Node0&#45;&gt;Node1 -->
<g id="edge1_Node000000_Node000001" class="edge">
<title>Node0&#45;&gt;Node1</title>
<g id="a_edge1_Node000000_Node000001"><a xlink:title=" ">
<path fill="none" stroke="#63b8ff" d="M50.07,-36.61C62.2,-38.49 76.79,-40.74 91.37,-43"/>
<polygon fill="#63b8ff" stroke="#63b8ff" points="50.76,-33.18 40.34,-35.11 49.69,-40.09 50.76,-33.18"/>
</a>
</g>
</g>
<!-- Node2 -->
<g id="Node000002" class="node">
<title>Node2</title>
<g id="a_Node000002"><a xlink:href="d2/ddc/class_russian_cosmetic_app_1_1_new_order_form.html" target="_top" xlink:title=" ">
<polygon fill="white" stroke="#666666" points="252.5,-20 74.5,-20 74.5,0 252.5,0 252.5,-20"/>
<text text-anchor="middle" x="163.5" y="-6.5" font-family="Helvetica,sans-Serif" font-size="10.00">RussianCosmeticApp.NewOrderForm</text>
</a>
</g>
</g>
<!-- Node0&#45;&gt;Node2 -->
<g id="edge2_Node000000_Node000002" class="edge">
<title>Node0&#45;&gt;Node2</title>
<g id="a_edge2_Node000000_Node000002"><a xlink:title=" ">
<path fill="none" stroke="#63b8ff" d="M50,-27.4C63.13,-25.37 79.14,-22.89 94.92,-20.45"/>
<polygon fill="#63b8ff" stroke="#63b8ff" points="49.69,-23.91 40.34,-28.89 50.76,-30.82 49.69,-23.91"/>
</a>
</g>
</g>
</g>
</svg>
