<?xml version="1.0" encoding="UTF-8" standalone="no"?>
<!DOCTYPE svg PUBLIC "-//W3C//DTD SVG 1.1//EN"
 "http://www.w3.org/Graphics/SVG/1.1/DTD/svg11.dtd">
<!-- Generated by graphviz version 9.0.0 (20230911.1827)
 -->
<!-- Title: RussianCosmeticApp.Models.StatusModel.StatusModel Pages: 1 -->
<svg width="346pt" height="90pt"
 viewBox="0.00 0.00 346.00 90.00" xmlns="http://www.w3.org/2000/svg" xmlns:xlink="http://www.w3.org/1999/xlink">
<g id="graph0" class="graph" transform="scale(1 1) rotate(0) translate(4 86)">
<title>RussianCosmeticApp.Models.StatusModel.StatusModel</title>
<!-- Node1 -->
<g id="Node000001" class="node">
<title>Node1</title>
<g id="a_Node000001"><a xlink:title=" ">
<polygon fill="#999999" stroke="#666666" points="338,-57 190.75,-57 190.75,-25 338,-25 338,-57"/>
<text text-anchor="start" x="198.75" y="-43.5" font-family="Helvetica,sans-Serif" font-size="10.00">RussianCosmeticApp.Models.</text>
<text text-anchor="middle" x="264.38" y="-31.5" font-family="Helvetica,sans-Serif" font-size="10.00">StatusModel.StatusModel</text>
</a>
</g>
</g>
<!-- Node2 -->
<g id="Node000002" class="node">
<title>Node2</title>
<g id="a_Node000002"><a xlink:href="$dd/db3/class_russian_cosmetic_app_1_1db_1_1_status_d_b.html#af1b5ec24a109a311abacadd3add20d78" xlink:title=" ">
<polygon fill="white" stroke="#666666" points="154.75,-82 0,-82 0,-50 154.75,-50 154.75,-82"/>
<text text-anchor="start" x="8" y="-68.5" font-family="Helvetica,sans-Serif" font-size="10.00">RussianCosmeticApp.db.Status</text>
<text text-anchor="middle" x="77.38" y="-56.5" font-family="Helvetica,sans-Serif" font-size="10.00">DB.GetAll</text>
</a>
</g>
</g>
<!-- Node1&#45;&gt;Node2 -->
<g id="edge5_Node000001_Node000002" class="edge">
<title>Node1&#45;&gt;Node2</title>
<g id="a_edge5_Node000001_Node000002"><a xlink:title=" ">
<path fill="none" stroke="#63b8ff" d="M179.09,-52.39C171.13,-53.46 163.1,-54.55 155.22,-55.62"/>
<polygon fill="#63b8ff" stroke="#63b8ff" points="179.32,-55.89 188.76,-51.08 178.38,-48.95 179.32,-55.89"/>
</a>
</g>
</g>
<!-- Node3 -->
<g id="Node000003" class="node">
<title>Node3</title>
<g id="a_Node000003"><a xlink:href="$dd/db3/class_russian_cosmetic_app_1_1db_1_1_status_d_b.html#a26c5108e12845e7169793a64ac70ed41" xlink:title=" ">
<polygon fill="white" stroke="#666666" points="154.75,-32 0,-32 0,0 154.75,0 154.75,-32"/>
<text text-anchor="start" x="8" y="-18.5" font-family="Helvetica,sans-Serif" font-size="10.00">RussianCosmeticApp.db.Status</text>
<text text-anchor="middle" x="77.38" y="-6.5" font-family="Helvetica,sans-Serif" font-size="10.00">DB.GetByID</text>
</a>
</g>
</g>
<!-- Node1&#45;&gt;Node3 -->
<g id="edge6_Node000001_Node000003" class="edge">
<title>Node1&#45;&gt;Node3</title>
<g id="a_edge6_Node000001_Node000003"><a xlink:title=" ">
<path fill="none" stroke="#63b8ff" d="M179.09,-29.61C171.13,-28.54 163.1,-27.45 155.22,-26.38"/>
<polygon fill="#63b8ff" stroke="#63b8ff" points="178.38,-33.05 188.76,-30.92 179.32,-26.11 178.38,-33.05"/>
</a>
</g>
</g>
</g>
</svg>
