<?xml version="1.0" encoding="UTF-8" standalone="no"?>
<!DOCTYPE svg PUBLIC "-//W3C//DTD SVG 1.1//EN"
 "http://www.w3.org/Graphics/SVG/1.1/DTD/svg11.dtd">
<!-- Generated by graphviz version 9.0.0 (20230911.1827)
 -->
<!-- Title: RussianCosmeticApp.db.ServiceDB.GetAll Pages: 1 -->
<svg width="364pt" height="90pt"
 viewBox="0.00 0.00 364.00 90.00" xmlns="http://www.w3.org/2000/svg" xmlns:xlink="http://www.w3.org/1999/xlink">
<g id="graph0" class="graph" transform="scale(1 1) rotate(0) translate(4 86)">
<title>RussianCosmeticApp.db.ServiceDB.GetAll</title>
<!-- Node1 -->
<g id="Node000001" class="node">
<title>Node1</title>
<g id="a_Node000001"><a xlink:title=" ">
<polygon fill="#999999" stroke="#666666" points="157.75,-57 0,-57 0,-25 157.75,-25 157.75,-57"/>
<text text-anchor="start" x="8" y="-43.5" font-family="Helvetica,sans-Serif" font-size="10.00">RussianCosmeticApp.db.Service</text>
<text text-anchor="middle" x="78.88" y="-31.5" font-family="Helvetica,sans-Serif" font-size="10.00">DB.GetAll</text>
</a>
</g>
</g>
<!-- Node2 -->
<g id="Node000002" class="node">
<title>Node2</title>
<g id="a_Node000002"><a xlink:href="$d9/dce/class_russian_cosmetic_app_1_1db_1_1_d_b_utils.html#afd3eb73b91a83ceb13caba36851665a2" xlink:title="Статический метод для подключение к базе данных">
<polygon fill="white" stroke="#666666" points="356,-82 193.75,-82 193.75,-50 356,-50 356,-82"/>
<text text-anchor="start" x="201.75" y="-68.5" font-family="Helvetica,sans-Serif" font-size="10.00">RussianCosmeticApp.db.DBUtils.</text>
<text text-anchor="middle" x="274.88" y="-56.5" font-family="Helvetica,sans-Serif" font-size="10.00">GetDBConnection</text>
</a>
</g>
</g>
<!-- Node1&#45;&gt;Node2 -->
<g id="edge5_Node000001_Node000002" class="edge">
<title>Node1&#45;&gt;Node2</title>
<g id="a_edge5_Node000001_Node000002"><a xlink:title=" ">
<path fill="none" stroke="#63b8ff" d="M158.22,-51.1C166.09,-52.11 174.12,-53.14 182.1,-54.17"/>
<polygon fill="#63b8ff" stroke="#63b8ff" points="181.47,-57.62 191.84,-55.43 182.37,-50.68 181.47,-57.62"/>
</a>
</g>
</g>
<!-- Node3 -->
<g id="Node000003" class="node">
<title>Node3</title>
<g id="a_Node000003"><a xlink:href="$dc/d27/class_russian_cosmetic_app_1_1db_1_1_service_d_b.html#a917551b192180cafa93e866ff44904fe" xlink:title=" ">
<polygon fill="white" stroke="#666666" points="353.75,-32 196,-32 196,0 353.75,0 353.75,-32"/>
<text text-anchor="start" x="204" y="-18.5" font-family="Helvetica,sans-Serif" font-size="10.00">RussianCosmeticApp.db.Service</text>
<text text-anchor="middle" x="274.88" y="-6.5" font-family="Helvetica,sans-Serif" font-size="10.00">DB.ServiceDB</text>
</a>
</g>
</g>
<!-- Node1&#45;&gt;Node3 -->
<g id="edge6_Node000001_Node000003" class="edge">
<title>Node1&#45;&gt;Node3</title>
<g id="a_edge6_Node000001_Node000003"><a xlink:title=" ">
<path fill="none" stroke="#63b8ff" d="M158.22,-30.9C166.78,-29.8 175.53,-28.67 184.21,-27.55"/>
<polygon fill="#63b8ff" stroke="#63b8ff" points="184.58,-31.04 194.05,-26.29 183.68,-24.09 184.58,-31.04"/>
</a>
</g>
</g>
</g>
</svg>
