<?xml version="1.0" encoding="UTF-8" standalone="no"?>
<!DOCTYPE svg PUBLIC "-//W3C//DTD SVG 1.1//EN"
 "http://www.w3.org/Graphics/SVG/1.1/DTD/svg11.dtd">
<!-- Generated by graphviz version 9.0.0 (20230911.1827)
 -->
<!-- Title: RussianCosmeticApp.db.PhysClientDB.GetAll Pages: 1 -->
<svg width="355pt" height="90pt"
 viewBox="0.00 0.00 355.00 90.00" xmlns="http://www.w3.org/2000/svg" xmlns:xlink="http://www.w3.org/1999/xlink">
<g id="graph0" class="graph" transform="scale(1 1) rotate(0) translate(4 86)">
<title>RussianCosmeticApp.db.PhysClientDB.GetAll</title>
<!-- Node1 -->
<g id="Node000001" class="node">
<title>Node1</title>
<g id="a_Node000001"><a xlink:title=" ">
<polygon fill="#999999" stroke="#666666" points="148.75,-57 0,-57 0,-25 148.75,-25 148.75,-57"/>
<text text-anchor="start" x="8" y="-43.5" font-family="Helvetica,sans-Serif" font-size="10.00">RussianCosmeticApp.db.Phys</text>
<text text-anchor="middle" x="74.38" y="-31.5" font-family="Helvetica,sans-Serif" font-size="10.00">ClientDB.GetAll</text>
</a>
</g>
</g>
<!-- Node2 -->
<g id="Node000002" class="node">
<title>Node2</title>
<g id="a_Node000002"><a xlink:href="$d9/dce/class_russian_cosmetic_app_1_1db_1_1_d_b_utils.html#afd3eb73b91a83ceb13caba36851665a2" xlink:title="Статический метод для подключение к базе данных">
<polygon fill="white" stroke="#666666" points="347,-82 184.75,-82 184.75,-50 347,-50 347,-82"/>
<text text-anchor="start" x="192.75" y="-68.5" font-family="Helvetica,sans-Serif" font-size="10.00">RussianCosmeticApp.db.DBUtils.</text>
<text text-anchor="middle" x="265.88" y="-56.5" font-family="Helvetica,sans-Serif" font-size="10.00">GetDBConnection</text>
</a>
</g>
</g>
<!-- Node1&#45;&gt;Node2 -->
<g id="edge5_Node000001_Node000002" class="edge">
<title>Node1&#45;&gt;Node2</title>
<g id="a_edge5_Node000001_Node000002"><a xlink:title=" ">
<path fill="none" stroke="#63b8ff" d="M149.18,-50.74C157.02,-51.77 165.07,-52.83 173.08,-53.89"/>
<polygon fill="#63b8ff" stroke="#63b8ff" points="172.49,-57.34 182.87,-55.18 173.41,-50.4 172.49,-57.34"/>
</a>
</g>
</g>
<!-- Node3 -->
<g id="Node000003" class="node">
<title>Node3</title>
<g id="a_Node000003"><a xlink:href="$d3/d14/class_russian_cosmetic_app_1_1db_1_1_phys_client_d_b.html#a5e25bfe817dbc1413cd77103eae670c2" xlink:title=" ">
<polygon fill="white" stroke="#666666" points="340.25,-32 191.5,-32 191.5,0 340.25,0 340.25,-32"/>
<text text-anchor="start" x="199.5" y="-18.5" font-family="Helvetica,sans-Serif" font-size="10.00">RussianCosmeticApp.db.Phys</text>
<text text-anchor="middle" x="265.88" y="-6.5" font-family="Helvetica,sans-Serif" font-size="10.00">ClientDB.PhysClientDB</text>
</a>
</g>
</g>
<!-- Node1&#45;&gt;Node3 -->
<g id="edge6_Node000001_Node000003" class="edge">
<title>Node1&#45;&gt;Node3</title>
<g id="a_edge6_Node000001_Node000003"><a xlink:title=" ">
<path fill="none" stroke="#63b8ff" d="M149.18,-31.26C159.33,-29.92 169.82,-28.54 180.15,-27.18"/>
<polygon fill="#63b8ff" stroke="#63b8ff" points="180.31,-30.69 189.77,-25.91 179.4,-23.75 180.31,-30.69"/>
</a>
</g>
</g>
</g>
</svg>
