<?xml version="1.0" encoding="UTF-8" standalone="no"?>
<!DOCTYPE svg PUBLIC "-//W3C//DTD SVG 1.1//EN"
 "http://www.w3.org/Graphics/SVG/1.1/DTD/svg11.dtd">
<!-- Generated by graphviz version 9.0.0 (20230911.1827)
 -->
<!-- Title: RussianCosmeticApp.db.PhysClientDB.Save Pages: 1 -->
<svg width="540pt" height="90pt"
 viewBox="0.00 0.00 539.75 90.00" xmlns="http://www.w3.org/2000/svg" xmlns:xlink="http://www.w3.org/1999/xlink">
<g id="graph0" class="graph" transform="scale(1 1) rotate(0) translate(4 86)">
<title>RussianCosmeticApp.db.PhysClientDB.Save</title>
<!-- Node1 -->
<g id="Node000001" class="node">
<title>Node1</title>
<g id="a_Node000001"><a xlink:title=" ">
<polygon fill="#999999" stroke="#666666" points="148.75,-57 0,-57 0,-25 148.75,-25 148.75,-57"/>
<text text-anchor="start" x="8" y="-43.5" font-family="Helvetica,sans-Serif" font-size="10.00">RussianCosmeticApp.db.Phys</text>
<text text-anchor="middle" x="74.38" y="-31.5" font-family="Helvetica,sans-Serif" font-size="10.00">ClientDB.Save</text>
</a>
</g>
</g>
<!-- Node2 -->
<g id="Node000002" class="node">
<title>Node2</title>
<g id="a_Node000002"><a xlink:href="$d3/d14/class_russian_cosmetic_app_1_1db_1_1_phys_client_d_b.html#ab44a18eccebd36dea00288a436448fca" xlink:title=" ">
<polygon fill="white" stroke="#666666" points="333.5,-82 184.75,-82 184.75,-50 333.5,-50 333.5,-82"/>
<text text-anchor="start" x="192.75" y="-68.5" font-family="Helvetica,sans-Serif" font-size="10.00">RussianCosmeticApp.db.Phys</text>
<text text-anchor="middle" x="259.12" y="-56.5" font-family="Helvetica,sans-Serif" font-size="10.00">ClientDB.Insert</text>
</a>
</g>
</g>
<!-- Node1&#45;&gt;Node2 -->
<g id="edge7_Node000001_Node000002" class="edge">
<title>Node1&#45;&gt;Node2</title>
<g id="a_edge7_Node000001_Node000002"><a xlink:title=" ">
<path fill="none" stroke="#63b8ff" d="M149.18,-51.1C157.06,-52.17 165.12,-53.28 173.11,-54.37"/>
<polygon fill="#63b8ff" stroke="#63b8ff" points="172.46,-57.81 182.84,-55.7 173.41,-50.88 172.46,-57.81"/>
</a>
</g>
</g>
<!-- Node4 -->
<g id="Node000004" class="node">
<title>Node4</title>
<g id="a_Node000004"><a xlink:href="$d3/d14/class_russian_cosmetic_app_1_1db_1_1_phys_client_d_b.html#a3901769d10b7bb3c1f210e9b13ecb7e6" xlink:title=" ">
<polygon fill="white" stroke="#666666" points="333.5,-32 184.75,-32 184.75,0 333.5,0 333.5,-32"/>
<text text-anchor="start" x="192.75" y="-18.5" font-family="Helvetica,sans-Serif" font-size="10.00">RussianCosmeticApp.db.Phys</text>
<text text-anchor="middle" x="259.12" y="-6.5" font-family="Helvetica,sans-Serif" font-size="10.00">ClientDB.Update</text>
</a>
</g>
</g>
<!-- Node1&#45;&gt;Node4 -->
<g id="edge9_Node000001_Node000004" class="edge">
<title>Node1&#45;&gt;Node4</title>
<g id="a_edge9_Node000001_Node000004"><a xlink:title=" ">
<path fill="none" stroke="#63b8ff" d="M149.18,-30.9C157.06,-29.83 165.12,-28.72 173.11,-27.63"/>
<polygon fill="#63b8ff" stroke="#63b8ff" points="173.41,-31.12 182.84,-26.3 172.46,-24.19 173.41,-31.12"/>
</a>
</g>
</g>
<!-- Node3 -->
<g id="Node000003" class="node">
<title>Node3</title>
<g id="a_Node000003"><a xlink:href="$d9/dce/class_russian_cosmetic_app_1_1db_1_1_d_b_utils.html#afd3eb73b91a83ceb13caba36851665a2" xlink:title="Статический метод для подключение к базе данных">
<polygon fill="white" stroke="#666666" points="531.75,-82 369.5,-82 369.5,-50 531.75,-50 531.75,-82"/>
<text text-anchor="start" x="377.5" y="-68.5" font-family="Helvetica,sans-Serif" font-size="10.00">RussianCosmeticApp.db.DBUtils.</text>
<text text-anchor="middle" x="450.62" y="-56.5" font-family="Helvetica,sans-Serif" font-size="10.00">GetDBConnection</text>
</a>
</g>
</g>
<!-- Node2&#45;&gt;Node3 -->
<g id="edge8_Node000002_Node000003" class="edge">
<title>Node2&#45;&gt;Node3</title>
<g id="a_edge8_Node000002_Node000003"><a xlink:title=" ">
<path fill="none" stroke="#63b8ff" d="M333.93,-66C341.77,-66 349.82,-66 357.83,-66"/>
<polygon fill="#63b8ff" stroke="#63b8ff" points="357.6,-69.5 367.6,-66 357.6,-62.5 357.6,-69.5"/>
</a>
</g>
</g>
</g>
</svg>
