<?xml version="1.0" encoding="UTF-8" standalone="no"?>
<!DOCTYPE svg PUBLIC "-//W3C//DTD SVG 1.1//EN"
 "http://www.w3.org/Graphics/SVG/1.1/DTD/svg11.dtd">
<!-- Generated by graphviz version 9.0.0 (20230911.1827)
 -->
<!-- Title: RussianCosmeticApp.Models.PhysClientModel Pages: 1 -->
<svg width="258pt" height="120pt"
 viewBox="0.00 0.00 257.75 120.00" xmlns="http://www.w3.org/2000/svg" xmlns:xlink="http://www.w3.org/1999/xlink">
<g id="graph0" class="graph" transform="scale(1 1) rotate(0) translate(4 116)">
<title>RussianCosmeticApp.Models.PhysClientModel</title>
<!-- Node1 -->
<g id="Node000001" class="node">
<title>Node1</title>
<g id="a_Node000001"><a xlink:title=" ">
<polygon fill="#999999" stroke="#666666" points="182.75,-32 35.5,-32 35.5,0 182.75,0 182.75,-32"/>
<text text-anchor="start" x="43.5" y="-18.5" font-family="Helvetica,sans-Serif" font-size="10.00">RussianCosmeticApp.Models.</text>
<text text-anchor="middle" x="109.12" y="-6.5" font-family="Helvetica,sans-Serif" font-size="10.00">PhysClientModel</text>
</a>
</g>
</g>
<!-- Node2 -->
<g id="Node000002" class="node">
<title>Node2</title>
<g id="a_Node000002"><a xlink:href="../../d6/d61/class_russian_cosmetic_app_1_1_models_1_1_abs_client_model.html" target="_top" xlink:title=" ">
<polygon fill="white" stroke="#666666" points="84.25,-106 0,-106 0,-86 84.25,-86 84.25,-106"/>
<text text-anchor="middle" x="42.12" y="-92.5" font-family="Helvetica,sans-Serif" font-size="10.00">AbsClientModel</text>
</a>
</g>
</g>
<!-- Node2&#45;&gt;Node1 -->
<g id="edge1_Node000001_Node000002" class="edge">
<title>Node2&#45;&gt;Node1</title>
<g id="a_edge1_Node000001_Node000002"><a xlink:title=" ">
<path fill="none" stroke="#63b8ff" d="M57.33,-77.3C68.94,-63.78 84.78,-45.34 95.88,-32.42"/>
<polygon fill="#63b8ff" stroke="#63b8ff" points="54.92,-74.73 51.06,-84.6 60.23,-79.29 54.92,-74.73"/>
</a>
</g>
</g>
<!-- Node3 -->
<g id="Node000003" class="node">
<title>Node3</title>
<g id="a_Node000003"><a xlink:href="../../d7/da8/class_russian_cosmetic_app_1_1_models_1_1_person_model.html" target="_top" xlink:title=" ">
<polygon fill="white" stroke="#666666" points="249.75,-112 102.5,-112 102.5,-80 249.75,-80 249.75,-112"/>
<text text-anchor="start" x="110.5" y="-98.5" font-family="Helvetica,sans-Serif" font-size="10.00">RussianCosmeticApp.Models.</text>
<text text-anchor="middle" x="176.12" y="-86.5" font-family="Helvetica,sans-Serif" font-size="10.00">PersonModel</text>
</a>
</g>
</g>
<!-- Node3&#45;&gt;Node1 -->
<g id="edge2_Node000001_Node000003" class="edge">
<title>Node3&#45;&gt;Node1</title>
<g id="a_edge2_Node000001_Node000003"><a xlink:title=" ">
<path fill="none" stroke="#9a32cd" stroke-dasharray="5,2" d="M155.48,-70.96C144.68,-58.39 131.78,-43.37 122.33,-32.38"/>
<polygon fill="#9a32cd" stroke="#9a32cd" points="152.73,-73.14 161.9,-78.44 158.04,-68.58 152.73,-73.14"/>
</a>
</g>
<text text-anchor="middle" x="164.88" y="-52.5" font-family="Helvetica,sans-Serif" font-size="10.00" fill="grey"> _person</text>
</g>
</g>
</svg>
