<?xml version="1.0" encoding="UTF-8" standalone="no"?>
<!DOCTYPE svg PUBLIC "-//W3C//DTD SVG 1.1//EN"
 "http://www.w3.org/Graphics/SVG/1.1/DTD/svg11.dtd">
<!-- Generated by graphviz version 9.0.0 (20230911.1827)
 -->
<!-- Title: RussianCosmeticApp.db.PhysClientDB Pages: 1 -->
<svg width="258pt" height="177pt"
 viewBox="0.00 0.00 257.75 177.00" xmlns="http://www.w3.org/2000/svg" xmlns:xlink="http://www.w3.org/1999/xlink">
<g id="graph0" class="graph" transform="scale(1 1) rotate(0) translate(4 173)">
<title>RussianCosmeticApp.db.PhysClientDB</title>
<!-- Node1 -->
<g id="Node000001" class="node">
<title>Node1</title>
<g id="a_Node000001"><a xlink:title=" ">
<polygon fill="#999999" stroke="#666666" points="183.5,-32 34.75,-32 34.75,0 183.5,0 183.5,-32"/>
<text text-anchor="start" x="42.75" y="-18.5" font-family="Helvetica,sans-Serif" font-size="10.00">RussianCosmeticApp.db.Phys</text>
<text text-anchor="middle" x="109.12" y="-6.5" font-family="Helvetica,sans-Serif" font-size="10.00">ClientDB</text>
</a>
</g>
</g>
<!-- Node2 -->
<g id="Node000002" class="node">
<title>Node2</title>
<g id="a_Node000002"><a xlink:href="../../df/db9/class_russian_cosmetic_app_1_1_models_1_1_phys_client_model.html" target="_top" xlink:title=" ">
<polygon fill="white" stroke="#666666" points="153.88,-89 64.38,-89 64.38,-69 153.88,-69 153.88,-89"/>
<text text-anchor="middle" x="109.12" y="-75.5" font-family="Helvetica,sans-Serif" font-size="10.00">PhysClientModel</text>
</a>
</g>
</g>
<!-- Node2&#45;&gt;Node1 -->
<g id="edge1_Node000001_Node000002" class="edge">
<title>Node2&#45;&gt;Node1</title>
<g id="a_edge1_Node000001_Node000002"><a xlink:title=" ">
<path fill="none" stroke="#63b8ff" d="M109.12,-57.36C109.12,-49.07 109.12,-39.69 109.12,-32.06"/>
<polygon fill="#63b8ff" stroke="#63b8ff" points="105.63,-57.22 109.13,-67.22 112.63,-57.22 105.63,-57.22"/>
</a>
</g>
</g>
<!-- Node3 -->
<g id="Node000003" class="node">
<title>Node3</title>
<g id="a_Node000003"><a xlink:href="../../d6/d61/class_russian_cosmetic_app_1_1_models_1_1_abs_client_model.html" target="_top" xlink:title=" ">
<polygon fill="white" stroke="#666666" points="84.25,-163 0,-163 0,-143 84.25,-143 84.25,-163"/>
<text text-anchor="middle" x="42.12" y="-149.5" font-family="Helvetica,sans-Serif" font-size="10.00">AbsClientModel</text>
</a>
</g>
</g>
<!-- Node3&#45;&gt;Node2 -->
<g id="edge2_Node000002_Node000003" class="edge">
<title>Node3&#45;&gt;Node2</title>
<g id="a_edge2_Node000002_Node000003"><a xlink:title=" ">
<path fill="none" stroke="#63b8ff" d="M58.41,-134.5C71.71,-120.21 89.98,-100.57 100.58,-89.19"/>
<polygon fill="#63b8ff" stroke="#63b8ff" points="56.17,-131.77 51.92,-141.48 61.29,-136.54 56.17,-131.77"/>
</a>
</g>
</g>
<!-- Node4 -->
<g id="Node000004" class="node">
<title>Node4</title>
<g id="a_Node000004"><a xlink:href="../../d7/da8/class_russian_cosmetic_app_1_1_models_1_1_person_model.html" target="_top" xlink:title=" ">
<polygon fill="white" stroke="#666666" points="249.75,-169 102.5,-169 102.5,-137 249.75,-137 249.75,-169"/>
<text text-anchor="start" x="110.5" y="-155.5" font-family="Helvetica,sans-Serif" font-size="10.00">RussianCosmeticApp.Models.</text>
<text text-anchor="middle" x="176.12" y="-143.5" font-family="Helvetica,sans-Serif" font-size="10.00">PersonModel</text>
</a>
</g>
</g>
<!-- Node4&#45;&gt;Node2 -->
<g id="edge3_Node000002_Node000004" class="edge">
<title>Node4&#45;&gt;Node2</title>
<g id="a_edge3_Node000002_Node000004"><a xlink:title=" ">
<path fill="none" stroke="#9a32cd" stroke-dasharray="5,2" d="M154.19,-128.43C141.78,-115.09 126.96,-99.16 117.79,-89.31"/>
<polygon fill="#9a32cd" stroke="#9a32cd" points="151.51,-130.69 160.88,-135.62 156.63,-125.92 151.51,-130.69"/>
</a>
</g>
<text text-anchor="middle" x="162.88" y="-109.5" font-family="Helvetica,sans-Serif" font-size="10.00" fill="grey"> _person</text>
</g>
</g>
</svg>
