<?xml version="1.0" encoding="UTF-8" standalone="no"?>
<!DOCTYPE svg PUBLIC "-//W3C//DTD SVG 1.1//EN"
 "http://www.w3.org/Graphics/SVG/1.1/DTD/svg11.dtd">
<!-- Generated by graphviz version 9.0.0 (20230911.1827)
 -->
<!-- Title: RussianCosmeticApp.Models.PhysClientModel Pages: 1 -->
<svg width="157pt" height="164pt"
 viewBox="0.00 0.00 156.75 164.00" xmlns="http://www.w3.org/2000/svg" xmlns:xlink="http://www.w3.org/1999/xlink">
<g id="graph0" class="graph" transform="scale(1 1) rotate(0) translate(4 160)">
<title>RussianCosmeticApp.Models.PhysClientModel</title>
<!-- Node1 -->
<g id="Node000001" class="node">
<title>Node1</title>
<g id="a_Node000001"><a xlink:title=" ">
<polygon fill="#999999" stroke="#666666" points="148,-100 0.75,-100 0.75,-68 148,-68 148,-100"/>
<text text-anchor="start" x="8.75" y="-86.5" font-family="Helvetica,sans-Serif" font-size="10.00">RussianCosmeticApp.Models.</text>
<text text-anchor="middle" x="74.38" y="-74.5" font-family="Helvetica,sans-Serif" font-size="10.00">PhysClientModel</text>
</a>
</g>
</g>
<!-- Node3 -->
<g id="Node000003" class="node">
<title>Node3</title>
<g id="a_Node000003"><a xlink:href="../../d3/d14/class_russian_cosmetic_app_1_1db_1_1_phys_client_d_b.html" target="_top" xlink:title=" ">
<polygon fill="white" stroke="#666666" points="148.75,-32 0,-32 0,0 148.75,0 148.75,-32"/>
<text text-anchor="start" x="8" y="-18.5" font-family="Helvetica,sans-Serif" font-size="10.00">RussianCosmeticApp.db.Phys</text>
<text text-anchor="middle" x="74.38" y="-6.5" font-family="Helvetica,sans-Serif" font-size="10.00">ClientDB</text>
</a>
</g>
</g>
<!-- Node1&#45;&gt;Node3 -->
<g id="edge2_Node000001_Node000003" class="edge">
<title>Node1&#45;&gt;Node3</title>
<g id="a_edge2_Node000001_Node000003"><a xlink:title=" ">
<path fill="none" stroke="#63b8ff" d="M74.38,-56.31C74.38,-48.12 74.38,-39.38 74.38,-32.22"/>
<polygon fill="#63b8ff" stroke="#63b8ff" points="70.88,-56.18 74.38,-66.18 77.88,-56.18 70.88,-56.18"/>
</a>
</g>
</g>
<!-- Node2 -->
<g id="Node000002" class="node">
<title>Node2</title>
<g id="a_Node000002"><a xlink:href="../../d6/d61/class_russian_cosmetic_app_1_1_models_1_1_abs_client_model.html" target="_top" xlink:title=" ">
<polygon fill="white" stroke="#666666" points="116.5,-156 32.25,-156 32.25,-136 116.5,-136 116.5,-156"/>
<text text-anchor="middle" x="74.38" y="-142.5" font-family="Helvetica,sans-Serif" font-size="10.00">AbsClientModel</text>
</a>
</g>
</g>
<!-- Node2&#45;&gt;Node1 -->
<g id="edge1_Node000001_Node000002" class="edge">
<title>Node2&#45;&gt;Node1</title>
<g id="a_edge1_Node000001_Node000002"><a xlink:title=" ">
<path fill="none" stroke="#63b8ff" d="M74.38,-124.31C74.38,-116.37 74.38,-107.46 74.38,-100.14"/>
<polygon fill="#63b8ff" stroke="#63b8ff" points="70.88,-124.11 74.38,-134.11 77.88,-124.11 70.88,-124.11"/>
</a>
</g>
</g>
</g>
</svg>
